<svg id="レイヤー_1" data-name="レイヤー 1" xmlns="http://www.w3.org/2000/svg" width="860" height="205" viewBox="0 0 860 205">
  <title>Design x Engineering</title>
  <g>
    <path d="M146.56,88.26A12.39,12.39,0,0,1,145,92.92a6.19,6.19,0,0,0,2.67,2.15,4.13,4.13,0,0,0-.75,1,6.87,6.87,0,0,1-2.64-2.16A8.37,8.37,0,0,1,141,96.12a5.36,5.36,0,0,0-.68-1,7.19,7.19,0,0,0,3.28-2.22,13.67,13.67,0,0,1-1.25-3.21,6.63,6.63,0,0,1-.7,1,6.67,6.67,0,0,0-.66-.49v.41h-1.08V90.2h-2v2.72c0,.38.09.44.54.44h1.48c.41,0,.48-.18.53-1.33a3.07,3.07,0,0,0,1,.43c-.13,1.55-.43,2-1.42,2h-1.71c-1.16,0-1.49-.31-1.49-1.49V89.2h3.1V87.09h-3.1V86H141v3.58a11.39,11.39,0,0,0,1.8-4.56l1.17.21a18.6,18.6,0,0,1-.53,1.92h4.05v1.07Zm-3.46,0a13.26,13.26,0,0,0,1.21,3.6,11.3,11.3,0,0,0,1.11-3.6Z"/>
    <path d="M159.94,91.3v.88H149.23V91.3h2.29a4.74,4.74,0,0,0-.55-1l.66-.15h-2v-.83H154v-.67h-3.3v-.82H154v-.65h-4.06v-.83h2.16a5,5,0,0,0-.58-1l1-.28a4.62,4.62,0,0,1,.73,1.24l-.19.06h2.8a10,10,0,0,0,.67-1.3l1.16.22c-.23.41-.47.79-.68,1.09h2.24v.83h-4.12v.65h3.38v.81h-3.38v.67h4.48v.82h-2.06l.7.14c-.24.39-.47.75-.66,1Zm-9.08,1.48h7.5V96h-1.14v-.33H152v.37h-1.11Zm1.1.86v1.15h5.25V93.64Zm.1-3.5a4.68,4.68,0,0,1,.59,1l-.4.11H154V90.14Zm3.06,0V91.3h1.8l-.46-.09a8.74,8.74,0,0,0,.6-1.08Z"/>
    <path d="M164.1,91.61v3.1c0,.55-.11.85-.42,1a3.37,3.37,0,0,1-1.56.22,3.6,3.6,0,0,0-.3-1h1.06c.14,0,.2-.05.2-.22V91.93l-1.26.38-.25-1.07,1.51-.41V88.42h-1.4v-1h1.4V85.07h1v2.31h1.28v1h-1.28v2.11l1.15-.34.15,1Zm5.36,3.24a6.48,6.48,0,0,0,1,.06h2.35a3.41,3.41,0,0,0-.32,1h-2.06c-1.67,0-2.91-.29-3.69-1.88a5.19,5.19,0,0,1-1.36,2,5.88,5.88,0,0,0-.84-.67,5.43,5.43,0,0,0,1.75-3.86l1,.12a11.76,11.76,0,0,1-.23,1.26,2.69,2.69,0,0,0,1.35,1.65v-3.5h-2.88v-.91h6.92v.91h-3V92.3h2.4v.89h-2.4Zm2.37-5.44H166.1v-4h5.73Zm-1.07-3.17h-3.64V87h3.64Zm0,1.55h-3.64v.79h3.64Z"/>
    <path d="M181.17,93.23A11.18,11.18,0,0,0,185.43,95a5,5,0,0,0-.71.94,10.88,10.88,0,0,1-4.41-2.29V96h-1.12V93.67a10.55,10.55,0,0,1-4.31,2.22,5.26,5.26,0,0,0-.69-.9,10.88,10.88,0,0,0,4.19-1.76h-3.94v-.92h4.75v-.92h1.12v.92h4.84v.93Zm-5-3.2c.31-.34.66-.77,1-1.23h-2.52v-.9h3.22c.26-.36.52-.7.75-1l1,.3c-.17.24-.35.48-.54.73H185v.9h-2.21a3.78,3.78,0,0,1-1.14,1.47,27.41,27.41,0,0,1,2.8.87l-.67.78a31.17,31.17,0,0,0-3.19-1,16.78,16.78,0,0,1-5.23,1A3.21,3.21,0,0,0,175,91a23.64,23.64,0,0,0,4-.52c-.56-.14-1.1-.26-1.61-.37l-.2.24Zm-.34-2.38h-1V85.89h4.45V85h1.12v.85h4.51v1.76h-1.07v-.83h-8Zm2.63,1.15c-.15.21-.32.41-.48.62.77.14,1.61.32,2.45.52a2.83,2.83,0,0,0,1.16-1.14Z"/>
    <path d="M140.27,107.43a21.78,21.78,0,0,1-1.17,2.44V118h-1v-6.56a13,13,0,0,1-1.11,1.34,6.06,6.06,0,0,0-.63-1.13,12.72,12.72,0,0,0,2.93-4.59Zm4.52,6.4a8.93,8.93,0,0,0,3,2.88,4.74,4.74,0,0,0-.78.89,10.17,10.17,0,0,1-2.78-3v3.47h-1.12v-3.41a9.86,9.86,0,0,1-2.92,2.91,4.69,4.69,0,0,0-.77-.89,8.79,8.79,0,0,0,3.1-2.86h-2.72v-1h3.31v-1.3H140.6v-3.91h6.2v3.91h-2.62v1.3h3.23v1Zm-3.15-3.31h4v-1.93h-4Z"/>
    <path d="M159.87,112.65h-3v4c0,.68-.17,1-.63,1.18a8.19,8.19,0,0,1-2.35.18,5.49,5.49,0,0,0-.4-1.11c.81,0,1.67,0,1.92,0s.32-.06.32-.27v-4h-6.4v-1.09h6.41V110h1.14v1.6h3ZM150.7,111h-1.12v-2.64H154v-1.26h1.19v1.26h4.43v2.63H158.4v-1.59h-7.7Zm.89,2.18a10.78,10.78,0,0,1,1.95,2.42l-1,.64a11.31,11.31,0,0,0-1.86-2.49Z"/>
    <path d="M164.28,115.54a3.19,3.19,0,0,0,2.79,1.25c1.36.06,4.14,0,5.66-.08a4.81,4.81,0,0,0-.36,1.09c-1.37.06-3.92.08-5.31,0a4,4,0,0,1-3.25-1.38c-.5.49-1,1-1.62,1.49l-.55-1.11a14.58,14.58,0,0,0,1.57-1.22v-2.89h-1.44v-1h2.51ZM163.7,110a8.69,8.69,0,0,0-1.85-2l.85-.62a9,9,0,0,1,1.9,1.91Zm4.37,5.54h-3.28v-.84h3.28v-.59h-2.51v-3.43h2.5v-.6h-2.83v-.8h2.83v-.74h1.1v.74H172v.8h-2.87v.6h2.59v3.43h-2.59v.59h3.38v.84h-3.38v1h-1.09ZM165.94,109h-1v-1.58h7.4V109h-1v-.75h-5.39Zm.58,3h1.55v-.65h-1.55Zm1.55,1.34v-.67h-1.55v.67Zm1.09-2V112h1.59v-.65Zm1.59,1.32h-1.59v.67h1.59Z"/>
    <path d="M184.46,116.64c0,.65-.16,1-.59,1.15a6.54,6.54,0,0,1-2.24.2,4.76,4.76,0,0,0-.37-1.08c.76,0,1.55,0,1.78,0s.3-.07.3-.3v-2.15h-2.9v3.43h-1.11v-3.43h-2.75a7,7,0,0,1-1.5,3.63,3.89,3.89,0,0,0-.88-.73c1.31-1.45,1.43-3.58,1.43-5.27v-4.27h8.84Zm-5.14-3.21v-1.78h-2.6v.48c0,.4,0,.85-.05,1.29Zm-2.6-4.51v1.69h2.6v-1.69Zm6.62,0h-2.9v1.69h2.9Zm0,4.51v-1.78h-2.9v1.78Z"/>
  </g>
  <g>
    <path d="M69.16,27.21c0-.17,0-.4,0-.65H63.49c-.49,0-1.09,0-1.44,0V25.26c.35,0,.88.06,1.39.06h5.75V20h-5.6c-.47,0-1.08,0-1.39,0V18.69c.42,0,1,.07,1.39.07h6l1,0c0,.26,0,.7,0,1v6.2c0,.42,0,1,0,1.27Z"/>
    <path d="M78.43,24.43a11.33,11.33,0,0,0,4.16-4.52l.73,1.31a12.3,12.3,0,0,1-4.21,4.34,13.14,13.14,0,0,1-4.59,1.79l-.81-1.23A12.4,12.4,0,0,0,78.43,24.43ZM78,20.6l-1,1a26.1,26.1,0,0,0-3-2.54l.88-.94A24.47,24.47,0,0,1,78,20.6Z"/>
    <path d="M90.89,23.56a10.91,10.91,0,0,0,2-2.67l-4.16.84v3.39c0,.8.27,1.06,1.65,1.06a19,19,0,0,0,3.76-.37l-.05,1.29a26.91,26.91,0,0,1-3.75.25c-2.45,0-2.85-.62-2.86-1.9V22l-2.65.56-.23-1.25c.56-.07,1.65-.27,2.88-.49V18.89a8.07,8.07,0,0,0-.08-1.22h1.41a9.74,9.74,0,0,0-.08,1.22v1.66c1.91-.37,3.82-.75,4.34-.87a3.46,3.46,0,0,0,.73-.24l.9.69c-.09.15-.24.37-.33.55a17.15,17.15,0,0,1-2.47,3.49Z"/>
    <path d="M103.92,18.66a4.61,4.61,0,0,0,.51,0,1.22,1.22,0,0,1,0-.32,1.39,1.39,0,1,1,1.38,1.37,1.48,1.48,0,0,1-.31,0l-.06.23a12,12,0,0,1-1.8,4.4,9.27,9.27,0,0,1-4.76,3.25l-1-1.12a8,8,0,0,0,4.69-2.86,8.56,8.56,0,0,0,1.5-3.68H98.11c-.52,0-1,0-1.3,0V18.58a10.48,10.48,0,0,0,1.3.09Zm2.6-.35a.75.75,0,0,0-1.49,0,.73.73,0,0,0,.74.74A.74.74,0,0,0,106.52,18.31Z"/>
    <path d="M115.7,24.07a31,31,0,0,0-4.54-1.87v3.7a14,14,0,0,0,.1,1.54h-1.47a12.63,12.63,0,0,0,.09-1.54V19a9,9,0,0,0-.11-1.34h1.47c0,.39-.08.92-.08,1.34v1.87a40.79,40.79,0,0,1,5.08,1.92Z"/>
    <path d="M125.4,18.65a4.61,4.61,0,0,0,.51,0,1.24,1.24,0,0,1,0-.33,1.39,1.39,0,1,1,1.38,1.38,1.48,1.48,0,0,1-.31,0l-.06.23a12,12,0,0,1-1.8,4.4,9.33,9.33,0,0,1-4.76,3.25l-1-1.13A8,8,0,0,0,124,23.55a8.55,8.55,0,0,0,1.5-3.69h-5.89c-.52,0-1,0-1.3,0V18.57a10.48,10.48,0,0,0,1.3.09Zm2.6-.35a.75.75,0,1,0-.75.75A.75.75,0,0,0,128,18.3Z"/>
    <path d="M139,21.25a2.71,2.71,0,0,0-.18.41A8.68,8.68,0,0,1,137.07,25a8.93,8.93,0,0,1-4.29,2.55l-.94-1.08a8.14,8.14,0,0,0,4.2-2.16,5.64,5.64,0,0,0,1.33-2.4h-6.11c-.28,0-.81,0-1.27.05V20.75a12.68,12.68,0,0,0,1.27.08h6.14a2.38,2.38,0,0,0,.77-.11ZM131.08,18a10.2,10.2,0,0,0,1.14.06h4.68a10.37,10.37,0,0,0,1.17-.06v1.24c-.3,0-.78,0-1.18,0h-4.67c-.37,0-.8,0-1.14,0Z"/>
    <path d="M145.81,24.4A11.41,11.41,0,0,0,150,19.87l.73,1.31a12.41,12.41,0,0,1-4.21,4.35,13.34,13.34,0,0,1-4.59,1.79l-.81-1.24A12.41,12.41,0,0,0,145.81,24.4Zm-.41-3.84-1,1a27.15,27.15,0,0,0-3-2.54l.88-.93A24.4,24.4,0,0,1,145.4,20.56Z"/>
    <path d="M152.21,24.93c.43,0,.91.08,1.35.08h7.05a9.55,9.55,0,0,0,1.2-.07v1.45c-.39,0-.86-.06-1.2-.06h-7.05c-.44,0-.93,0-1.35.06Zm1-5.9c.4,0,.88.06,1.27.06h5.06A11.12,11.12,0,0,0,160.8,19V20.4c-.33,0-.84,0-1.24,0h-5.05c-.44,0-.9,0-1.29,0Z"/>
    <path d="M168.74,24.39a11.41,11.41,0,0,0,4.16-4.53l.73,1.31a12.3,12.3,0,0,1-4.21,4.34,13,13,0,0,1-4.59,1.79l-.8-1.23A12.59,12.59,0,0,0,168.74,24.39Zm-.41-3.84-1,1a26.1,26.1,0,0,0-3-2.54l.88-.94A24.47,24.47,0,0,1,168.33,20.55Z"/>
    <path d="M182.46,19.29a2.65,2.65,0,0,0,.9-.12l1,.6a3.78,3.78,0,0,0-.34.73,11.73,11.73,0,0,1-2.11,4.08,10.8,10.8,0,0,1-4.79,3.32l-1.12-1a9.58,9.58,0,0,0,4.81-3,9.22,9.22,0,0,0,1.82-3.54h-3.75a12.35,12.35,0,0,1-3,2.93l-1.05-.78a10.23,10.23,0,0,0,3.76-4,5.4,5.4,0,0,0,.44-1.08l1.4.46c-.24.36-.5.81-.63,1.05a3.14,3.14,0,0,1-.18.31Zm1-2a16.82,16.82,0,0,1,1,1.64l-.79.34a13.86,13.86,0,0,0-.95-1.66Zm1.36-.52a14.5,14.5,0,0,1,1,1.63l-.78.35a12.48,12.48,0,0,0-1-1.66Z"/>
    <path d="M86.34,47c0,.56.25.71.81.82a10.48,10.48,0,0,0,1.5.09,20.34,20.34,0,0,0,4.14-.4V48.9a36.24,36.24,0,0,1-4.21.24,13.7,13.7,0,0,1-2-.12c-1-.18-1.52-.66-1.52-1.67V40.79A8.42,8.42,0,0,0,85,39.7h1.41a7.75,7.75,0,0,0-.09,1.09v2.52a34.84,34.84,0,0,0,4.49-1.44,9.92,9.92,0,0,0,1.16-.6l.52,1.21L91.25,43a50.09,50.09,0,0,1-4.92,1.55Z"/>
    <path d="M105.49,40.9a6.26,6.26,0,0,0-.39.51,12.07,12.07,0,0,1-2.94,3.31l-1-.81a7.44,7.44,0,0,0,2.45-2.48H97c-.47,0-.89,0-1.41.08V40.18a10.85,10.85,0,0,0,1.4.1h6.71a7.53,7.53,0,0,0,1-.08Zm-4.84,1.6c0,3.13-.18,5.43-3.33,7l-1.11-.89a4.66,4.66,0,0,0,1.15-.59c1.72-1.11,2-2.62,2-4.61a5.36,5.36,0,0,0-.07-1Z"/>
    <path d="M109.44,39.92c0,.25,0,.55,0,.89v4a9.35,9.35,0,0,0,0,1H108c0-.2.06-.62.06-1v-4c0-.22,0-.64,0-.89Zm5.55-.1c0,.31,0,.67,0,1.1v2.14c0,2.74-.43,3.76-1.32,4.77a6.69,6.69,0,0,1-2.86,1.75l-1-1a5.6,5.6,0,0,0,2.9-1.57c.84-.95,1-1.89,1-4V40.92a8.47,8.47,0,0,0-.07-1.1Z"/>
    <path d="M122.43,46.41a11.46,11.46,0,0,0,4.16-4.52l.73,1.3a12.32,12.32,0,0,1-4.21,4.35,13.34,13.34,0,0,1-4.59,1.79l-.8-1.24A12.41,12.41,0,0,0,122.43,46.41ZM122,42.57l-1,1a27.15,27.15,0,0,0-3-2.54l.88-.93A24.4,24.4,0,0,1,122,42.57Z"/>
    <path d="M136.15,41.32a2.88,2.88,0,0,0,.9-.12l1,.6a4.48,4.48,0,0,0-.34.73,11.82,11.82,0,0,1-2.11,4.08,10.79,10.79,0,0,1-4.79,3.31l-1.12-1a9.6,9.6,0,0,0,4.81-3,9.08,9.08,0,0,0,1.82-3.54h-3.75a12.53,12.53,0,0,1-3,2.93l-1.05-.78a10.3,10.3,0,0,0,3.76-4,5.66,5.66,0,0,0,.45-1.08l1.39.45c-.24.36-.49.82-.63,1.06a2.48,2.48,0,0,1-.18.31Zm1-2c.3.43.73,1.18,1,1.65l-.8.33a14.26,14.26,0,0,0-.94-1.65Zm1.36-.51a13.66,13.66,0,0,1,1,1.63l-.78.35a11.49,11.49,0,0,0-1-1.66Z"/>
    <path d="M142.6,39.9c0,.25,0,.55,0,.89v4c0,.32,0,.74,0,1h-1.4c0-.21.06-.63.06-1v-4c0-.22,0-.64,0-.89Zm5.54-.1c0,.31,0,.67,0,1.1V43c0,2.74-.43,3.76-1.32,4.77a6.79,6.79,0,0,1-2.87,1.76l-1-1a5.53,5.53,0,0,0,2.9-1.57c.84-1,1-1.88,1-4V40.9a10.72,10.72,0,0,0-.07-1.1Z"/>
    <path d="M159.61,42a7.72,7.72,0,0,0,1.2-.07v1.27a10.34,10.34,0,0,0-1.18,0h-1.14v.41c0,3.09-.69,4.81-3.5,6.07l-1-1c2.24-.83,3.3-1.86,3.29-5v-.48H154.1V45c0,.5,0,1,.05,1.17h-1.32c0-.17.06-.67.06-1.16v-1.8h-1.18c-.56,0-1.05,0-1.25,0V41.91a11,11,0,0,0,1.25.08h1.18V40.61c0-.42,0-.8-.06-1h1.34a5.87,5.87,0,0,0-.07,1V42h3.16V40.6a7.1,7.1,0,0,0-.06-1h1.36a6.91,6.91,0,0,0-.07,1V42Z"/>
    <path d="M163,43.63c.39,0,1.13.07,1.78.07h6.51a12.22,12.22,0,0,0,1.34-.08V45.1c-.26,0-.8-.05-1.33-.05h-6.52c-.67,0-1.38,0-1.78,0Z"/>
    <path d="M183.91,43.43c.26,0,.75,0,1,0V44.6c-.29,0-.67,0-1,0H180.7a5.84,5.84,0,0,1-3.07,5l-1.2-.82a4.74,4.74,0,0,0,3-4.16H176c-.37,0-.79,0-1.09,0V43.37a8.77,8.77,0,0,0,1.08.06h3.5v-2c-1.19.12-2.5.16-3.37.17l-.3-1.1a26.06,26.06,0,0,0,4.06-.2,14.34,14.34,0,0,0,3.06-.69l.78,1-.78.19a21.06,21.06,0,0,1-2.22.45v2.12Z"/>
  </g>
  <g>
    <path d="M669.7,78,669,79.07a27.83,27.83,0,0,0-2.68-1.68l.69-1C667.77,76.76,669.14,77.6,669.7,78Zm1.22,2.82a12.31,12.31,0,0,0,4.59-4.46l.72,1.27a14,14,0,0,1-4.68,4.3,13.87,13.87,0,0,1-4,1.49l-.71-1.24A13.15,13.15,0,0,0,670.92,80.82Zm.58-5.47-.71,1c-.61-.45-1.89-1.3-2.64-1.72l.69-1C669.58,74.05,670.94,74.94,671.5,75.35Z"/>
    <path d="M686.21,74.89a5.72,5.72,0,0,0-.35.63,16.47,16.47,0,0,1-2,3.42,31.68,31.68,0,0,1,3.43,3.51l-1.07.94a26.15,26.15,0,0,0-3.16-3.5,15.5,15.5,0,0,1-4.62,3.44l-1-1a13.49,13.49,0,0,0,4.93-3.51,10,10,0,0,0,1.9-3.17h-4.4c-.47,0-1.12.06-1.31.07V74.36c.24,0,.94.08,1.31.08h4.45a3.68,3.68,0,0,0,1-.12Z"/>
    <path d="M698,77.05c.25,0,.71,0,1-.06v1.23c-.28,0-.7,0-1,0h-3.08a7.4,7.4,0,0,1-.75,3.2,5.87,5.87,0,0,1-2.38,2.23l-1.1-.81A5,5,0,0,0,692.85,81a5.51,5.51,0,0,0,.72-2.83h-3.46c-.36,0-.76,0-1.1,0V77a9.61,9.61,0,0,0,1.1.06Zm-6.35-1.91c-.39,0-.84,0-1.17,0V73.94a8.81,8.81,0,0,0,1.17.09h4.84a8.28,8.28,0,0,0,1.2-.09v1.24c-.39,0-.83,0-1.2,0Z"/>
    <path d="M709.18,83.42c-.15-.42-.37-1-.62-1.5-1.91.23-5.74.65-7.3.8l-1.06.14L700,81.47c.38,0,.84,0,1.2,0,.15,0,.32,0,.49,0,.68-1.71,1.81-5.29,2.15-6.51a7.54,7.54,0,0,0,.26-1.25l1.5.31c-.13.33-.29.69-.45,1.21-.36,1.14-1.45,4.54-2,6.12,1.63-.14,3.66-.37,4.94-.54a16.52,16.52,0,0,0-1.37-2.34l1.16-.5a35.79,35.79,0,0,1,2.65,4.92Z"/>
    <path d="M716.47,75.75h-4.59v-.89h4.59ZM716,83.24h-2.65v.5h-1v-4H716Zm0-6.06a2.71,2.71,0,0,0,1.25-2.51V73.25h3.85v2.82c0,.28,0,.33.19.33h.47c.18,0,.22-.16.25-1.26a2.41,2.41,0,0,0,.91.4c-.07,1.43-.35,1.8-1,1.8h-.77c-.83,0-1.08-.27-1.08-1.25V74.24h-1.73v.45a3.61,3.61,0,0,1-1.51,3.22,3.9,3.9,0,0,0-.8-.7v.15h-3.6V76.5h3.6Zm-3.6.91h3.6V79h-3.6ZM716,74.16H712.5v-.87H716Zm-2.62,6.45v1.73h1.68V80.61Zm8.93-2.36a7.78,7.78,0,0,1-1.94,3.5A7.79,7.79,0,0,0,723,82.92a4.23,4.23,0,0,0-.72,1,8,8,0,0,1-2.75-1.4,9,9,0,0,1-2.89,1.41,3.91,3.91,0,0,0-.6-1,8,8,0,0,0,2.66-1.18,8.63,8.63,0,0,1-1.56-2.37l1-.31a6.23,6.23,0,0,0,1.38,2,6.16,6.16,0,0,0,1.38-2h-4.3V78h4.79l.2,0Z"/>
    <path d="M729.27,75.75h-4.78v-.89h4.79Zm-.49,7.48H726v.51h-1v-4h3.75Zm-3.73-6.74h3.77v.86h-3.77Zm0,1.6h3.77V79h-3.77Zm3.78-3.94h-3.71v-.87h3.71ZM726,80.61v1.72h1.78V80.6Zm9.62-2.6H733v5.87h-1.13V78h-2.67v-1.1h2.67v-4H733v4h2.59Z"/>
    <path d="M667.51,99.48v6.44h-1.1V95.39h4.45v4.09Zm0-3.26V97h2.3v-.8Zm2.3,2.45v-.88h-2.3v.88Zm3.18,4.46v2.57h-1v-2.57h-1.46a3.85,3.85,0,0,1-1.56,2.76,3.55,3.55,0,0,0-.73-.66,2.88,2.88,0,0,0,1.32-2.1h-1.36v-.93h1.4v-1.14h-1.19v-.88h5.82v.89H673v1.14h1.49v.92Zm-1-.93v-1.14h-1.43v1.14Zm4.33,2.35c0,.61-.12.94-.52,1.13a4.56,4.56,0,0,1-1.88.2,3.63,3.63,0,0,0-.36-1.1H675c.18,0,.24-.07.24-.25v-5h-3.44V95.39h4.54Zm-3.49-8.33V97h2.38v-.8Zm2.38,2.47v-.9h-2.38v.9Z"/>
    <path d="M685.94,100.1v1.58h2.71v1h-2.71v1.64c0,.41.06.47.44.47h1.17c.34,0,.41-.24.45-1.43a3.06,3.06,0,0,0,1,.43c-.1,1.55-.41,2-1.34,2h-1.47c-1.13,0-1.4-.33-1.4-1.47v-1.64h-1.91c-.23,1.27-1,2.47-3.25,3.25a3.66,3.66,0,0,0-.71-.87c1.85-.61,2.56-1.48,2.81-2.38h-2.54v-1h2.67V100.1H680.7v-.43a9.54,9.54,0,0,1-1.71,1,3.54,3.54,0,0,0-.67-.83,8.33,8.33,0,0,0,2.23-1.42,12.51,12.51,0,0,0-1.32-1.15l.7-.59a11.64,11.64,0,0,1,1.32,1,8,8,0,0,0,1-1.36h-2.74v-1h3.28l.2,0,.73.35A8.23,8.23,0,0,1,681.45,99h5A10.66,10.66,0,0,1,684,95.22l1-.29a9.25,9.25,0,0,0,.7,1.41A11.86,11.86,0,0,0,687,95.06l.84.59a18.53,18.53,0,0,1-1.64,1.4,8.37,8.37,0,0,0,.66.79,12.8,12.8,0,0,0,1.55-1.43l.82.58a16.92,16.92,0,0,1-1.75,1.44,7.51,7.51,0,0,0,2.08,1.26,4.27,4.27,0,0,0-.77,1,8.11,8.11,0,0,1-1.61-1v.44Zm-1.15,0H683v1.58h1.83Z"/>
    <path d="M668.43,125.4a3.2,3.2,0,0,0,2.8,1.26c1.35.06,4.14,0,5.66-.08a4.81,4.81,0,0,0-.36,1.09c-1.38.06-3.92.08-5.31,0a4,4,0,0,1-3.25-1.38c-.51.49-1,1-1.62,1.49l-.55-1.11a17.25,17.25,0,0,0,1.57-1.22V122.6h-1.44v-1h2.5Zm-.57-5.56a8.71,8.71,0,0,0-1.85-2l.85-.63a9,9,0,0,1,1.89,1.92Zm4.36,5.54H669v-.84h3.27V124h-2.5v-3.43h2.51v-.6h-2.83v-.8h2.83v-.75h1.09v.75h2.88v.8h-2.88v.6h2.59V124h-2.59v.59h3.38v.84h-3.38v1h-1.1Zm-2.12-6.49h-1v-1.58h7.4v1.59h-1v-.76H670.1Zm.57,3h1.55v-.65h-1.55Zm1.55,1.34v-.67h-1.54v.67Zm1.09-2v.65h1.6v-.65Zm1.6,1.32h-1.6v.67h1.6Z"/>
    <path d="M688.61,126.51c0,.65-.15,1-.58,1.15a6.64,6.64,0,0,1-2.24.19,4.49,4.49,0,0,0-.38-1.08c.77,0,1.56,0,1.79,0s.3-.08.3-.3v-2.15h-2.9v3.43h-1.12v-3.43h-2.76a6.84,6.84,0,0,1-1.5,3.64,3.41,3.41,0,0,0-.87-.73c1.31-1.45,1.42-3.58,1.42-5.27v-4.27h8.84Zm-5.13-3.21v-1.78h-2.6V122c0,.41,0,.85,0,1.3Zm-2.6-4.51v1.69h2.6v-1.69Zm6.62,0h-2.91v1.69h2.91Zm0,4.5v-1.77h-2.91v1.78Z"/>
    <path d="M695.61,119.76H691v-.89h4.58Zm-.43,7.49h-2.65v.5h-1v-4h3.61Zm0-6.06a2.75,2.75,0,0,0,1.26-2.51v-1.42h3.85v2.82c0,.28,0,.33.19.33H701c.18,0,.23-.16.25-1.26a2.39,2.39,0,0,0,.91.4c-.07,1.43-.34,1.8-1,1.8h-.77c-.82,0-1.08-.27-1.08-1.25v-1.84H697.5v.45a3.63,3.63,0,0,1-1.5,3.22,4.68,4.68,0,0,0-.81-.71v.16h-3.6v-.86h3.6Zm-3.6.91h3.6V123h-3.6Zm3.56-3.93h-3.51v-.88h3.51Zm-2.62,6.45v1.73h1.68v-1.73Zm8.93-2.36a7.69,7.69,0,0,1-1.94,3.5,8,8,0,0,0,2.63,1.17,4.55,4.55,0,0,0-.72,1,8.12,8.12,0,0,1-2.75-1.4,9,9,0,0,1-2.89,1.41,3.64,3.64,0,0,0-.6-1,8.13,8.13,0,0,0,2.67-1.17,8.39,8.39,0,0,1-1.56-2.38l1-.31a6.4,6.4,0,0,0,1.38,2,5.77,5.77,0,0,0,1.38-2h-4.29v-1h4.79l.2,0Z"/>
    <path d="M708.41,119.76h-4.78v-.89h4.78Zm-.48,7.48h-2.77v.51h-1v-4h3.75Zm-3.74-6.74H708v.86h-3.77Zm0,1.6H708V123h-3.77Zm3.78-3.94h-3.71v-.87H708Zm-2.82,6.46v1.72h1.77v-1.72Zm9.62-2.6h-2.59v5.87h-1.12V122h-2.67v-1.1h2.67v-4h1.13v4h2.59Z"/>
  </g>
  <g>
    <path d="M773.81,77.18a7.27,7.27,0,0,0,1-.06v1.24c-.28,0-.7,0-1,0h-3.08a7.47,7.47,0,0,1-.74,3.19,5.84,5.84,0,0,1-2.38,2.25L766.5,83a5,5,0,0,0,2.22-1.79,5.43,5.43,0,0,0,.71-2.83H766c-.36,0-.76,0-1.09,0V77.12a9.56,9.56,0,0,0,1.09.06Zm-6.34-1.9c-.41,0-.86,0-1.18,0V74.09a8.82,8.82,0,0,0,1.16.07h4.06c.37,0,.82,0,1.2-.07v1.23c-.39,0-.82,0-1.2,0Zm6.08-.13a14.35,14.35,0,0,0-.95-1.65l.76-.33a16.27,16.27,0,0,1,1,1.65Zm1.17-2.48a14.31,14.31,0,0,1,1,1.63l-.78.34A11.82,11.82,0,0,0,774,73Z"/>
    <path d="M779.39,74.81l1.37.28c-.08.3-.19.76-.25,1a26.8,26.8,0,0,1-1,3.69,17.79,17.79,0,0,1-1.77,3.35l-1.3-.55a16,16,0,0,0,1.85-3.29A17.3,17.3,0,0,0,779.39,74.81Zm3,.27,1.23-.41c.48.9,1.29,2.63,1.77,3.85s1.09,3,1.41,4.15l-1.36.44a41.9,41.9,0,0,0-1.31-4.17A34.84,34.84,0,0,0,782.42,75.08Zm3.56.09-.78.34a15.48,15.48,0,0,0-1-1.66l.78-.32A15,15,0,0,1,786,75.17Zm1.38-.53-.77.35a12.81,12.81,0,0,0-1-1.65l.76-.33C786.68,73.47,787.14,74.21,787.36,74.64Z"/>
    <path d="M794.89,82A9,9,0,0,0,795,83.4h-1.49a12.73,12.73,0,0,0,.08-1.42V77.72a23.05,23.05,0,0,1-4.34,1.77l-.68-1.17a19.12,19.12,0,0,0,5.41-2.18,13.51,13.51,0,0,0,3.13-2.69l1,.92a19.05,19.05,0,0,1-3.2,2.58Z"/>
    <path d="M808.06,74.88a3.29,3.29,0,0,0-.35.63,16.93,16.93,0,0,1-2,3.42,32.61,32.61,0,0,1,3.43,3.51l-1.07.94a25.64,25.64,0,0,0-3.17-3.51,15.32,15.32,0,0,1-4.61,3.45l-1-1a13.23,13.23,0,0,0,4.93-3.52,9.86,9.86,0,0,0,1.91-3.16h-4.4c-.47,0-1.12.06-1.31.07V74.35c.24,0,.93.08,1.31.08h4.44a3.76,3.76,0,0,0,1-.12Z"/>
    <path d="M816.28,78.57s0,.31,0,.46c-.13,2.93-.25,4-.57,4.41a1,1,0,0,1-.82.39,8.23,8.23,0,0,1-1.45,0,2.21,2.21,0,0,0-.31-1,12,12,0,0,0,1.28.06c.19,0,.31,0,.4-.14s.32-1.06.42-3.22h-1.68a6.88,6.88,0,0,1-2.09,4.34,2.86,2.86,0,0,0-.77-.78c1.61-1.29,1.87-3.62,2-5.71h-1.25v-4h4.79v4h-2.45c0,.38,0,.77-.09,1.15Zm-3.85-2.13h2.69v-2h-2.69ZM818.35,81h-1.08V74.33h1.08Zm2.89-7.83v9.36c0,.69-.17,1-.59,1.22a6.91,6.91,0,0,1-2.25.2,5,5,0,0,0-.4-1.14c.82,0,1.57,0,1.81,0s.31-.08.31-.3V73.12Z"/>
    <path d="M831.63,80.7a4.31,4.31,0,0,0,2.89,2.3,2.69,2.69,0,0,0-.65.94,5.05,5.05,0,0,1-3-2.55A5.06,5.06,0,0,1,827.55,84a3.53,3.53,0,0,0-.61-.84c2-.62,2.8-1.49,3.12-2.41h-2.32V77.54h2.51v-.94h-1.68V76a7.81,7.81,0,0,1-1,.6c-.06-.14-.15-.31-.24-.48v.29h-1.2v.76c.32.42,1.21,1.72,1.39,2l-.6.88c-.16-.37-.48-1-.79-1.57v5.37h-1v-5a10.87,10.87,0,0,1-1.29,2.87,5.65,5.65,0,0,0-.54-1A13.27,13.27,0,0,0,825,76.42h-1.5v-1h1.58V72.88h1v2.51h1.2v.14a7.92,7.92,0,0,0,2.87-2.64h1a8.22,8.22,0,0,0,3.37,2.71,6.53,6.53,0,0,0-.59,1,8.17,8.17,0,0,1-1-.6v.6h-1.76v.94h2.6V80.7Zm-1.4-.88a4.61,4.61,0,0,0,0-.53v-.88h-1.54v1.41Zm2.32-4.17a8.66,8.66,0,0,1-1.79-1.79,7.86,7.86,0,0,1-1.7,1.79Zm-1.29,2.76v.91c0,.17,0,.34,0,.5h1.6V78.41Z"/>
    <path d="M836,74.89h4.37v.89H836Zm4,8.47h-2.52v.51h-1v-4H840Zm-.07-5.94h-3.38v-.86h3.39Zm-3.38.77h3.38v.86h-3.38Zm3.38-4h-3.31v-.88h3.31Zm-2.45,6.59v1.73H839V80.74ZM847,82.42v1h-6.68V82.42h.84V76.6h1v5.82h1.22V74.6H840.7v-1h6.1V74.6h-2.3v3.09h2.23v1.06H844.5v3.67Z"/>
    <path d="M767.4,103.4a3.17,3.17,0,0,0,2.79,1.26c1.36.06,4.14,0,5.66-.09a5.07,5.07,0,0,0-.36,1.1c-1.38.06-3.92.08-5.31,0a4,4,0,0,1-3.25-1.38c-.5.49-1,1-1.62,1.49l-.55-1.11a16,16,0,0,0,1.57-1.22V100.6h-1.44v-1h2.5Zm-.58-5.56a8.49,8.49,0,0,0-1.85-2l.85-.63a8.81,8.81,0,0,1,1.9,1.92Zm4.31,5.2h-3.29v-.91h3.29v-.71h-2.61V97.49h2.6v-.68H768v-.93h3.12v-1h1.08v1h3.26v.92H772.2v.69h2.69v3.93h-2.68v.71h3.42V103h-3.43v1.26h-1.08Zm-1.58-4h1.57v-.78h-1.57Zm1.58,1.56v-.79h-1.57v.79Zm1.07-2.34v.78h1.62v-.78Zm1.62,1.55H772.2v.79h1.61Z"/>
    <path d="M781.17,100.9c-.43.15-.88.29-1.31.42v3.36c0,.55-.11.85-.44,1a3.49,3.49,0,0,1-1.55.21,3.61,3.61,0,0,0-.31-1,8.8,8.8,0,0,0,1.06,0c.16,0,.22,0,.22-.2v-3l-1.3.4-.25-1.07c.43-.11,1-.27,1.55-.44V98.27h-1.39v-1h1.39V94.92h1v2.31h1.2v.19a6.52,6.52,0,0,0,1.51-2.53l1,.24a9.26,9.26,0,0,1-.42,1h1.56a8.6,8.6,0,0,0,.5-1.23l1.08.25c-.17.34-.34.67-.52,1h2.33V97h-2.51v.62h2.18v.68h-2.18v.64h2.18v.68h-2.18v.67h2.63v.8H782V97.94a6.6,6.6,0,0,1-.58.6,3.08,3.08,0,0,0-.32-.36v.08h-1.2v2l1.15-.36Zm7.14,1.74s0,.26,0,.4c-.16,1.54-.32,2.24-.61,2.54a1.25,1.25,0,0,1-.83.3,13.88,13.88,0,0,1-1.46,0,2.14,2.14,0,0,0-.31-.93c.56,0,1.14.06,1.36.06a.58.58,0,0,0,.41-.09,3,3,0,0,0,.4-1.47H786c-.05.19-.1.38-.15.53l-.95-.14c.1-.37.22-.84.33-1.31h-1.27a4,4,0,0,1-2.57,3.41,3.81,3.81,0,0,0-.72-.8,3,3,0,0,0,2.19-2.61h-1.54v-.9h5.08l-.21,1ZM784.56,97h-1.64v.62h1.64Zm0,1.3h-1.64v.64h1.64Zm0,1.32h-1.64v.67h1.64Z"/>
    <path d="M799,99a9.05,9.05,0,0,0,1-.06v1.24c-.27,0-.69,0-1,0H796a7.3,7.3,0,0,1-.74,3.2,5.87,5.87,0,0,1-2.38,2.23l-1.11-.81a5,5,0,0,0,2.22-1.79,5.54,5.54,0,0,0,.72-2.83h-3.47c-.36,0-.75,0-1.09,0V99a9.56,9.56,0,0,0,1.09.06Zm-6.35-1.9c-.4,0-.84,0-1.18,0V95.94a8.83,8.83,0,0,0,1.18.09h4.83a8.15,8.15,0,0,0,1.2-.08v1.24c-.38,0-.83,0-1.2,0Z"/>
    <path d="M810.18,96.88a5.49,5.49,0,0,0-.35.62,15.79,15.79,0,0,1-2,3.42,31.67,31.67,0,0,1,3.43,3.52l-1.07.93a25.48,25.48,0,0,0-3.16-3.5,15.53,15.53,0,0,1-4.62,3.45l-1-1a13.63,13.63,0,0,0,4.93-3.52,9.93,9.93,0,0,0,1.9-3.17h-4.4c-.47,0-1.12.06-1.31.07V96.35c.24,0,.94.08,1.31.08h4.45a3.68,3.68,0,0,0,1-.12Z"/>
    <path d="M820.35,102a32.16,32.16,0,0,0-4.54-1.87v3.71a13.89,13.89,0,0,0,.09,1.53h-1.47a12.59,12.59,0,0,0,.09-1.53V96.92a9,9,0,0,0-.11-1.35h1.48c0,.4-.09.92-.09,1.34v1.87a40.79,40.79,0,0,1,5.08,1.92Z"/>
    <path d="M768.7,122l-.69,1.06a29.9,29.9,0,0,0-2.68-1.67l.69-1C766.77,120.76,768.14,121.6,768.7,122Zm1.22,2.81a12.21,12.21,0,0,0,4.59-4.45l.72,1.27a13.87,13.87,0,0,1-8.66,5.79l-.71-1.24A12.91,12.91,0,0,0,769.92,124.81Zm.58-5.46-.71,1c-.61-.45-1.89-1.3-2.64-1.72l.69-1C768.58,118.05,769.94,118.94,770.5,119.35Z"/>
    <path d="M785.21,118.89a4.92,4.92,0,0,0-.35.63,16.47,16.47,0,0,1-2,3.42,32.61,32.61,0,0,1,3.43,3.51l-1.07.93a26.82,26.82,0,0,0-3.17-3.5,15.19,15.19,0,0,1-4.61,3.45l-1-1a13.27,13.27,0,0,0,4.92-3.52,9.86,9.86,0,0,0,1.91-3.16h-4.4c-.47,0-1.12.06-1.31.07v-1.35c.24,0,.93.08,1.31.08h4.45a3.68,3.68,0,0,0,1-.12Z"/>
    <path d="M797,121.05c.25,0,.71,0,1-.06v1.23c-.28,0-.7,0-1,0h-3.08a7.4,7.4,0,0,1-.75,3.2,5.87,5.87,0,0,1-2.38,2.23l-1.11-.81a5,5,0,0,0,2.22-1.79,5.54,5.54,0,0,0,.72-2.83H789.1c-.35,0-.75,0-1.09,0V121a9.56,9.56,0,0,0,1.09.06Zm-6.35-1.91c-.39,0-.84,0-1.17,0v-1.24a8.81,8.81,0,0,0,1.17.09h4.83a9.69,9.69,0,0,0,1.2-.09v1.24c-.38,0-.82,0-1.19,0Z"/>
    <path d="M808.18,127.42c-.15-.42-.37-1-.62-1.5-1.91.23-5.75.65-7.31.8l-1,.14-.22-1.39c.37,0,.84,0,1.2,0,.15,0,.31,0,.49,0,.67-1.71,1.81-5.29,2.15-6.51a8.75,8.75,0,0,0,.26-1.25l1.5.31c-.13.33-.29.69-.46,1.21-.35,1.14-1.45,4.54-2,6.12,1.63-.14,3.65-.37,4.94-.54a16.52,16.52,0,0,0-1.37-2.34l1.16-.5a34.66,34.66,0,0,1,2.64,4.92Z"/>
    <path d="M819.93,121a9.05,9.05,0,0,0,1-.06v1.24c-.28,0-.7,0-1,0h-3.08a7.44,7.44,0,0,1-.75,3.2,5.87,5.87,0,0,1-2.38,2.23l-1.11-.82a4.92,4.92,0,0,0,2.22-1.78,5.54,5.54,0,0,0,.72-2.83h-3.47c-.36,0-.75,0-1.09,0V121a9.56,9.56,0,0,0,1.09.06Zm-6.35-1.9c-.39,0-.84,0-1.17,0v-1.24a8.55,8.55,0,0,0,1.17.09h4.83a8.06,8.06,0,0,0,1.2-.08v1.23c-.38,0-.82,0-1.19,0Z"/>
    <path d="M831.07,118.87a4.32,4.32,0,0,0-.34.62,16.29,16.29,0,0,1-2,3.42,31.65,31.65,0,0,1,3.43,3.51l-1.06.94a25.59,25.59,0,0,0-3.17-3.5,15.21,15.21,0,0,1-4.62,3.44l-1-1a13.63,13.63,0,0,0,4.93-3.52,9.75,9.75,0,0,0,1.9-3.17h-4.4c-.47,0-1.11.06-1.31.07v-1.36a11.72,11.72,0,0,0,1.31.09h4.45a3.34,3.34,0,0,0,1-.12Z"/>
    <path d="M841.24,124a30.91,30.91,0,0,0-4.53-1.87v3.7c0,.38,0,1.11.09,1.54h-1.47a12.58,12.58,0,0,0,.1-1.54V118.9a9,9,0,0,0-.11-1.34h1.48c0,.4-.08.92-.08,1.34v1.87a41.23,41.23,0,0,1,5.07,1.92Z"/>
  </g>
  <line x1="652" y1="69.51" x2="652.05" y2="133.44" style="fill: none;stroke: #000;stroke-miterlimit: 10;stroke-width: 2px"/>
  <line x1="652.04" y1="191.37" x2="652.01" y2="151.29" style="fill: none;stroke: #000;stroke-miterlimit: 10;stroke-width: 2px"/>
  <g>
    <path d="M675.23,162a6.51,6.51,0,0,0,1-.08v1.38a10.24,10.24,0,0,0-1-.06h-8c-.35,0-.74,0-1.12.06v-1.37a7,7,0,0,0,1.12.08h5.2c.23-1.31.68-4.21.72-5h-4.48c-.45,0-.84,0-1.23,0v-1.33a11.9,11.9,0,0,0,1.22.08h4.15a3.36,3.36,0,0,0,.9-.13l1,.49a1.79,1.79,0,0,0-.11.46c-.14,1.1-.61,4.09-.82,5.41Z"/>
    <path d="M678.73,158.47a17.17,17.17,0,0,0,1.77.07H687c.58,0,1.05,0,1.34-.07v1.47c-.26,0-.8,0-1.33,0H680.5c-.67,0-1.38,0-1.77,0Z"/>
    <path d="M699.46,157a7.53,7.53,0,0,0,1.2-.07v1.27c-.18,0-.61,0-1.19,0h-1.13v.41c0,3.09-.7,4.81-3.51,6.05l-1-1c2.24-.82,3.3-1.85,3.3-5v-.48H694V160c0,.48,0,1,0,1.16h-1.33a9.15,9.15,0,0,0,.06-1.16v-1.8h-1.17c-.56,0-1,0-1.25,0v-1.3a7.85,7.85,0,0,0,1.24.1h1.18v-1.38c0-.42-.05-.8-.06-1H694a7.91,7.91,0,0,0-.06,1V157h3.16v-1.4a9.1,9.1,0,0,0-.06-1h1.35c0,.18-.06.56-.06,1V157Zm-.05-.55a14.34,14.34,0,0,0-.66-1.66l.68-.22a15.71,15.71,0,0,1,.68,1.64Zm1.24-.38a16.89,16.89,0,0,0-.69-1.66l.68-.21a13.2,13.2,0,0,1,.69,1.64Z"/>
    <path d="M703,158.46c.38,0,1.13.07,1.77.07h6.52c.58,0,1-.05,1.34-.07v1.47c-.26,0-.8-.05-1.33-.05H704.8c-.67,0-1.38,0-1.77.05Z"/>
    <path d="M723.88,157.89c.25,0,.71,0,1-.06v1.23c-.28,0-.7,0-1,0H720.8a7.44,7.44,0,0,1-.75,3.2,5.87,5.87,0,0,1-2.38,2.23l-1.1-.81a5,5,0,0,0,2.21-1.79,5.51,5.51,0,0,0,.72-2.83H716c-.36,0-.76,0-1.1,0v-1.24a9.61,9.61,0,0,0,1.1.06ZM717.53,156c-.39,0-.84,0-1.17,0v-1.24a8.81,8.81,0,0,0,1.17.09h4.84a8.25,8.25,0,0,0,1.2-.08V156c-.39,0-.83,0-1.2,0Z"/>
    <path d="M735,155.72a3.51,3.51,0,0,0-.35.62,16.6,16.6,0,0,1-2,3.43,31.86,31.86,0,0,1,3.44,3.51l-1.07.93a26.19,26.19,0,0,0-3.17-3.5,15.24,15.24,0,0,1-4.62,3.45l-1-1a13.31,13.31,0,0,0,4.93-3.52,9.86,9.86,0,0,0,1.91-3.16h-4.41c-.46,0-1.11.06-1.3.07v-1.35c.24,0,.93.08,1.3.08h4.45a3.76,3.76,0,0,0,1-.12Z"/>
    <path d="M745.19,160.85a32,32,0,0,0-4.53-1.87v3.71a14,14,0,0,0,.1,1.53h-1.48a12.42,12.42,0,0,0,.1-1.53v-6.93a7.84,7.84,0,0,0-.11-1.35h1.48c0,.4-.08.92-.08,1.34v1.87a42.91,42.91,0,0,1,5.07,1.92Z"/>
    <path d="M675.91,179a12.51,12.51,0,0,1-1.58,4.67,6.28,6.28,0,0,0,2.68,2.15,4.23,4.23,0,0,0-.76,1,7.06,7.06,0,0,1-2.64-2.16,8.21,8.21,0,0,1-3.23,2.23,4.91,4.91,0,0,0-.69-1,7.22,7.22,0,0,0,3.29-2.22,13.33,13.33,0,0,1-1.25-3.22,7,7,0,0,1-.71,1,6.92,6.92,0,0,0-.66-.5v.41h-1.08v-.43h-2v2.72c0,.39.08.45.54.45h1.47c.41,0,.48-.18.53-1.33a3.77,3.77,0,0,0,1,.43c-.14,1.54-.43,1.95-1.43,1.95h-1.7c-1.17,0-1.49-.31-1.49-1.48V179.9h3.09v-2.11h-3.09v-1h4.17v3.57a11.42,11.42,0,0,0,1.81-4.56l1.16.22a18.59,18.59,0,0,1-.52,1.92h4.05V179Zm-3.45,0a13.07,13.07,0,0,0,1.2,3.59,10.9,10.9,0,0,0,1.11-3.6Z"/>
    <path d="M689.29,182v.89H678.58V182h2.3a4.55,4.55,0,0,0-.56-1l.66-.16h-2V180h4.37v-.68H680v-.82h3.3v-.65h-4.05v-.82h2.16a5.71,5.71,0,0,0-.58-1l1-.28a4.73,4.73,0,0,1,.73,1.23l-.19.06h2.79a8.54,8.54,0,0,0,.67-1.31L687,176a11,11,0,0,1-.69,1.09h2.25v.83h-4.13v.65h3.38v.81h-3.38V180H689v.83h-2.07l.7.13c-.24.4-.47.76-.66,1Zm-9.07,1.48h7.49v3.24h-1.13v-.34h-5.25v.38h-1.1Zm1.1.87v1.15h5.25v-1.15Zm.09-3.51a5,5,0,0,1,.59,1.06l-.39.11h1.72v-1.17Zm3.06,0V182h1.8l-.45-.08a10.28,10.28,0,0,0,.6-1.08Z"/>
    <path d="M694.9,178.62H691v-.89h3.89Zm6.79,6.81c0,.58-.12.93-.48,1.11a4.49,4.49,0,0,1-1.82.21,5.28,5.28,0,0,0-.31-1.11,10,10,0,0,0,1.34,0c.18,0,.24,0,.24-.22v-8.25h-4.21v3.38c0,1.86-.13,4.53-1.09,6.26a4.85,4.85,0,0,0-.87-.61l.07-.13h-2.19v.53h-.88v-4h3.1V186a13,13,0,0,0,.86-5.47v-4.34h6.25Zm-7.1-5.2h-3.08v-.87h3.08Zm-3.08.73h3.08v.87h-3.08Zm3-3.94h-3v-.88h3Zm-.88,6.46h-1.31v1.72h1.31Zm4.39-3.36v-1H697v-.84h1.09v-.92H699v.92h1.14v.84H699v1h1.27V181h-3.35v-.84Zm-.23,4.72v.45H697v-3.56h3v3.11Zm0-2.29V184h1.37v-1.46Z"/>
    <path d="M713.72,177.9a6,6,0,0,1-1.15,2.21,6.1,6.1,0,0,0,2.14,1.1,3,3,0,0,0-.62.88,6.45,6.45,0,0,1-2.2-1.3,7.21,7.21,0,0,1-2.31,1.26,3.87,3.87,0,0,0-.64-.8,6.48,6.48,0,0,0,2.29-1.15,7,7,0,0,1-.88-1.36,5.65,5.65,0,0,1-.64.72,8.48,8.48,0,0,0-.61-.66V180h-1.78c.54.25,1.54.75,1.84.92l-.55.72c-.32-.24-1-.67-1.53-1V182h-1v-1.34a8,8,0,0,1-1.82,1.37,4.29,4.29,0,0,0-.65-.7,6.83,6.83,0,0,0,2.06-1.34h-1.52v-2.23h1.93v-.53h-2.25v-.78h2.25v-.69h1v.69h2.25v.78h-2.25v.53h2v.82a6,6,0,0,0,1.61-2.83l1,.24c-.11.36-.24.71-.38,1.05h3.15v.87Zm-4.06,7.7h4.9v.92H703.75v-.92h1.87v-1.94h1.06v1.94h1.89v-2.42H704.5v-.89h9.29v.89h-4.13V184H713v.84h-3.29Zm-4.61-6.33h1.05v-.84h-1.05Zm3.12-.84h-1.09v.84h1.09Zm2.74-.51a5.49,5.49,0,0,0,1,1.52,4.58,4.58,0,0,0,.79-1.54h-1.76Z"/>
  </g>
  <g>
    <path d="M767.54,154.88c0,.25,0,.55,0,.89v4c0,.31,0,.73,0,1h-1.4c0-.2.06-.62.06-1v-4c0-.22,0-.64-.05-.89Zm5.54-.1c0,.31,0,.67,0,1.1V158c0,2.75-.44,3.77-1.32,4.77a6.57,6.57,0,0,1-2.87,1.75l-1-1a5.56,5.56,0,0,0,2.91-1.57c.84-1,1-1.88,1-4v-2.07a8.47,8.47,0,0,0-.07-1.1Z"/>
    <path d="M778,154.88c0,.25-.05.55-.05.89v4c0,.31,0,.73.05,1h-1.4c0-.2.06-.62.06-1v-4c0-.22,0-.64,0-.89Zm5.54-.1c0,.31,0,.67,0,1.1V158c0,2.75-.43,3.77-1.31,4.77a6.63,6.63,0,0,1-2.87,1.75l-1-1a5.6,5.6,0,0,0,2.91-1.57c.84-1,1-1.88,1-4v-2.07a8.47,8.47,0,0,0-.07-1.1Z"/>
    <path d="M786.45,158.62c.38,0,1.12.07,1.77.07h6.51c.59,0,1.06-.05,1.35-.07v1.47c-.27,0-.81,0-1.34,0h-6.52c-.67,0-1.38,0-1.77,0Z"/>
    <path d="M806.35,155.9a3.51,3.51,0,0,0-.35.62,16.54,16.54,0,0,1-2,3.42,30.81,30.81,0,0,1,3.43,3.51l-1.06.94a25.59,25.59,0,0,0-3.17-3.5,15.37,15.37,0,0,1-4.62,3.44l-1-1a13.49,13.49,0,0,0,4.93-3.51,9.89,9.89,0,0,0,1.91-3.17h-4.4c-.47,0-1.12.06-1.31.07v-1.35c.24,0,.93.08,1.31.08h4.44a3.76,3.76,0,0,0,1.05-.12Z"/>
  </g>
  <g>
    <path d="M499.4,32.57a98.09,98.09,0,0,1,25,42.3" style="fill: none;stroke: #000;stroke-miterlimit: 10;stroke-width: 4px"/>
    <polygon points="515.9 74.49 526.86 86.08 531.42 70.79 515.9 74.49"/>
  </g>
  <g>
    <path d="M360.58,32.6a98.19,98.19,0,0,1,116.5-16.76" style="fill: none;stroke: #000;stroke-miterlimit: 10;stroke-width: 4px"/>
    <polygon points="470.86 21.56 486.81 21.94 479.17 7.93 470.86 21.56"/>
  </g>
  <g>
    <path d="M331.85,102a97.63,97.63,0,0,1,12-47.07" style="fill: none;stroke: #b3b3b3;stroke-miterlimit: 10;stroke-width: 4px"/>
    <polygon points="349.58 61.12 349.95 45.17 335.95 52.81 349.58 61.12" style="fill: #b3b3b3"/>
  </g>
  <g>
    <path d="M360.6,171.37a98.07,98.07,0,0,1-25-42.29" style="fill: none;stroke: #000;stroke-miterlimit: 10;stroke-width: 4px"/>
    <polygon points="344.1 129.46 333.13 117.87 328.58 133.16 344.1 129.46"/>
  </g>
  <g>
    <path d="M499.4,171.37a98.19,98.19,0,0,1-117,16.46" style="fill: none;stroke: #000;stroke-miterlimit: 10;stroke-width: 4px"/>
    <polygon points="388.67 182.15 372.72 181.68 380.29 195.72 388.67 182.15"/>
  </g>
  <g>
    <path d="M528.14,102a97.68,97.68,0,0,1-12,47.09" style="fill: none;stroke: #000;stroke-miterlimit: 10;stroke-width: 4px"/>
    <polygon points="510.41 142.84 510.04 158.79 524.04 151.14 510.41 142.84"/>
  </g>
  <line x1="199.23" y1="81.45" x2="199.26" y2="121.53" style="fill: none;stroke: #000;stroke-miterlimit: 10;stroke-width: 2px"/>
  <line x1="199.23" y1="12.56" x2="199.26" y2="52.64" style="fill: none;stroke: #000;stroke-miterlimit: 10;stroke-width: 2px"/>
  <rect width="860" height="205" style="fill: none"/>
  <circle cx="499.34" cy="171.33" r="10"/>
  <circle cx="360.6" cy="171.33" r="10"/>
  <circle cx="528.14" cy="101.47" r="10"/>
  <circle cx="331.35" cy="101.47" r="10"/>
  <path d="M360.07,176.64a3.83,3.83,0,0,1-1.13-.17,2.75,2.75,0,0,1-1-.5.75.75,0,0,1-.24-.32.92.92,0,0,1-.09-.38.58.58,0,0,1,.18-.39.65.65,0,0,1,.48-.18.9.9,0,0,1,.52.22,4.25,4.25,0,0,0,.6.31,1.78,1.78,0,0,0,.65.12,2.49,2.49,0,0,0,1.19-.28,2.14,2.14,0,0,0,.86-.77,2,2,0,0,0,.31-1.09,2,2,0,0,0-.26-1,1.91,1.91,0,0,0-.72-.66,2.19,2.19,0,0,0-1-.24,2.1,2.1,0,0,0-.82.15,6.37,6.37,0,0,0-.63.29,1.05,1.05,0,0,1-.5.15.88.88,0,0,1-.55-.16.72.72,0,0,1-.24-.4,1.21,1.21,0,0,1,0-.42l.49-3.59a.71.71,0,0,1,.23-.4.76.76,0,0,1,.47-.16H363a.65.65,0,0,1,.47.19.63.63,0,0,1,.19.47.59.59,0,0,1-.19.46.64.64,0,0,1-.47.18H359.2l.16-.12-.45,3.08-.21-.42a1.12,1.12,0,0,1,.42-.27,4,4,0,0,1,.69-.23,3.46,3.46,0,0,1,.78-.09,3.4,3.4,0,0,1,1.66.41,3.07,3.07,0,0,1,1.15,1.14,3.28,3.28,0,0,1,.42,1.66,3.24,3.24,0,0,1-.29,1.35,3.53,3.53,0,0,1-.81,1.1,3.68,3.68,0,0,1-1.2.73A4.1,4.1,0,0,1,360.07,176.64Z" style="fill: #fff"/>
  <path d="M500.46,176.25A.65.65,0,0,1,500,176a.69.69,0,0,1-.19-.51v-7.12l.25.08-3,3.87-.07-.19h4.94a.68.68,0,0,1,.47.19.67.67,0,0,1,.19.47.62.62,0,0,1-.19.45.67.67,0,0,1-.47.18H496a.73.73,0,0,1-.48-.2.64.64,0,0,1-.22-.48.72.72,0,0,1,.18-.48l4.45-5.57a.53.53,0,0,1,.26-.21.71.71,0,0,1,.32-.07.69.69,0,0,1,.5.2.73.73,0,0,1,.2.51v8.37a.66.66,0,0,1-.21.51A.69.69,0,0,1,500.46,176.25Z" style="fill: #fff"/>
  <circle cx="499.34" cy="32.57" r="10"/>
  <circle cx="360.6" cy="32.57" r="10"/>
  <path d="M360.74,37.79a.72.72,0,0,1-.53-.21.66.66,0,0,1-.21-.51v-7.5l.18.25-1.34.8a.68.68,0,0,1-.88-.12.76.76,0,0,1-.2-.5.68.68,0,0,1,.36-.6l2.2-1.31a.93.93,0,0,1,.52-.1.64.64,0,0,1,.48.2.72.72,0,0,1,.19.51v8.37a.64.64,0,0,1-.22.51A.75.75,0,0,1,360.74,37.79Z" style="fill: #fff"/>
  <path d="M502.07,36.19a.63.63,0,0,1,.47.19.61.61,0,0,1,.19.47.59.59,0,0,1-.19.46.66.66,0,0,1-.47.18h-4.91a.66.66,0,0,1-.49-.18.63.63,0,0,1-.19-.49.74.74,0,0,1,.2-.5l3.12-3.38a6.86,6.86,0,0,0,.93-1.23,2.38,2.38,0,0,0,.33-1.15,1.75,1.75,0,0,0-.22-.89,1.73,1.73,0,0,0-.62-.61,1.82,1.82,0,0,0-.88-.22,1.78,1.78,0,0,0-.94.29,2.13,2.13,0,0,0-.78.82.66.66,0,0,1-.27.24.67.67,0,0,1-.28.06.73.73,0,0,1-.47-.18.59.59,0,0,1-.23-.45.6.6,0,0,1,.13-.37,2.15,2.15,0,0,1,.32-.38,3.42,3.42,0,0,1,1.19-1,3.26,3.26,0,0,1,1.41-.35,3.35,3.35,0,0,1,1.65.38,2.69,2.69,0,0,1,1.05,1,3.06,3.06,0,0,1,.37,1.52,3.28,3.28,0,0,1-.21,1.14,5.52,5.52,0,0,1-.59,1.16,8.55,8.55,0,0,1-.92,1.17l-2.17,2.37-.16-.14Z" style="fill: #fff"/>
  <path d="M525.86,105.09a1,1,0,0,1,.23,0,.86.86,0,0,1,.28.15,2.16,2.16,0,0,0,.61.37,2.11,2.11,0,0,0,.82.14,2,2,0,0,0,1-.24,1.93,1.93,0,0,0,1-1.76,1.89,1.89,0,0,0-.26-1,1.71,1.71,0,0,0-.68-.6,2.14,2.14,0,0,0-.89-.2,1.84,1.84,0,0,0-.44.05l-.35.1a1.37,1.37,0,0,1-.36,0,.52.52,0,0,1-.43-.18.72.72,0,0,1-.14-.46.65.65,0,0,1,.06-.29.89.89,0,0,1,.19-.27l2.59-2.86.31.29h-3.71a.65.65,0,0,1-.47-.19.64.64,0,0,1-.19-.47.58.58,0,0,1,.19-.45.64.64,0,0,1,.47-.18h4.42a.68.68,0,0,1,.55.21.72.72,0,0,1,.18.49.6.6,0,0,1-.08.29,1.56,1.56,0,0,1-.2.27l-2.59,2.87-.37-.38a1.72,1.72,0,0,1,.39-.11,1.91,1.91,0,0,1,.43-.06,2.61,2.61,0,0,1,1.44.41,2.86,2.86,0,0,1,1,1.08,3.23,3.23,0,0,1,.36,1.53,3.3,3.3,0,0,1-.46,1.78,3,3,0,0,1-1.28,1.15,4.16,4.16,0,0,1-1.88.41,3.77,3.77,0,0,1-1.06-.15,2.84,2.84,0,0,1-.91-.43.82.82,0,0,1-.33-.3.71.71,0,0,1,.12-.82A.6.6,0,0,1,525.86,105.09Z" style="fill: #fff"/>
  <path d="M330.94,106.46a3,3,0,0,1-1.38-.31,3.12,3.12,0,0,1-1-.84,4.08,4.08,0,0,1-.64-1.2,4.49,4.49,0,0,1-.21-1.36,7.59,7.59,0,0,1,.12-1.26,9.15,9.15,0,0,1,.42-1.47,6.91,6.91,0,0,1,.79-1.46,5.74,5.74,0,0,1,1.2-1.27,5,5,0,0,1,1.71-.86,1,1,0,0,1,.28,0,.81.81,0,0,1,.48.15.56.56,0,0,1,.22.52.68.68,0,0,1-.16.44,1,1,0,0,1-.44.28,4.25,4.25,0,0,0-1,.5,5.33,5.33,0,0,0-.93.8,5,5,0,0,0-.73,1,4.21,4.21,0,0,0-.44,1.18l-.35.06a3.12,3.12,0,0,1,.54-.63,2.63,2.63,0,0,1,.77-.5,2.32,2.32,0,0,1,1-.2,2.57,2.57,0,0,1,1.11.25,3.12,3.12,0,0,1,1,.7,3.59,3.59,0,0,1,.67,1,3.25,3.25,0,0,1-.17,2.85,3.31,3.31,0,0,1-1.15,1.17A3.11,3.11,0,0,1,330.94,106.46Zm0-1.31a1.78,1.78,0,0,0,.92-.24,1.75,1.75,0,0,0,.64-.68,2.25,2.25,0,0,0,0-2,1.8,1.8,0,0,0-.61-.7,1.66,1.66,0,0,0-.95-.27,1.74,1.74,0,0,0-1,.27,1.93,1.93,0,0,0-.65.71,2,2,0,0,0-.24,1,2.08,2.08,0,0,0,.23.95,1.8,1.8,0,0,0,.65.69A1.76,1.76,0,0,0,330.94,105.15Z" style="fill: #fff"/>
  <g>
    <line x1="441.91" y1="90.08" x2="418.09" y2="113.9" style="fill: none;stroke: #000;stroke-miterlimit: 10;stroke-width: 0.75px"/>
    <line x1="418.09" y1="90.08" x2="441.91" y2="113.9" style="fill: none;stroke: #000;stroke-miterlimit: 10;stroke-width: 0.75px"/>
  </g>
  <g>
    <path d="M403.2,56.1h3.45c3.85,0,6.23,2,6.23,6.25s-2.38,6.34-6.09,6.34H403.2Zm3.3,10.57c2.34,0,3.81-1.26,3.81-4.32s-1.47-4.24-3.81-4.24h-.79v8.56Z"/>
    <path d="M414.55,64c0-3.1,2.16-5,4.44-5,2.62,0,4,1.92,4,4.56a4.54,4.54,0,0,1-.12,1.14H417A2.51,2.51,0,0,0,419.62,67a3.89,3.89,0,0,0,2.14-.67l.85,1.54a6,6,0,0,1-3.33,1.05A4.61,4.61,0,0,1,414.55,64Zm6.28-1c0-1.3-.58-2.11-1.81-2.11A2.14,2.14,0,0,0,417,63Z"/>
    <path d="M424.13,67.59,425.27,66a4.16,4.16,0,0,0,2.55,1c.95,0,1.38-.41,1.38-1s-1-1-2-1.43c-1.21-.46-2.61-1.19-2.61-2.78s1.4-2.92,3.54-2.92a5.29,5.29,0,0,1,3.25,1.17l-1.12,1.51a3.69,3.69,0,0,0-2.06-.81c-.85,0-1.26.37-1.26.92s.94,1,1.94,1.32c1.26.48,2.66,1.11,2.66,2.88s-1.31,3-3.8,3A6,6,0,0,1,424.13,67.59Z"/>
    <path d="M433.21,56.27a1.5,1.5,0,1,1,1.5,1.36A1.39,1.39,0,0,1,433.21,56.27Zm.24,2.9h2.49v9.52h-2.49Z"/>
    <path d="M438,70.38a2.32,2.32,0,0,1,1.36-2v-.08a1.79,1.79,0,0,1-.87-1.6,2.36,2.36,0,0,1,1.05-1.79v-.07a3.14,3.14,0,0,1-1.25-2.48c0-2.25,1.82-3.45,3.84-3.45a4.36,4.36,0,0,1,1.43.24H447V61h-1.64a2.38,2.38,0,0,1,.45,1.45c0,2.14-1.64,3.23-3.68,3.23a3.89,3.89,0,0,1-1.22-.22.93.93,0,0,0-.41.82c0,.51.37.78,1.5.78h1.61c2.3,0,3.54.71,3.54,2.38,0,1.92-2,3.39-5.17,3.39C439.73,72.83,438,72.06,438,70.38Zm6.77-.51c0-.68-.56-.85-1.58-.85H442a5.62,5.62,0,0,1-1.33-.14,1.44,1.44,0,0,0-.63,1.11c0,.8.89,1.25,2.28,1.25S444.77,70.62,444.77,69.87Zm-1.16-7.49c0-1.12-.63-1.75-1.48-1.75a1.77,1.77,0,0,0,0,3.5C443,64.13,443.61,63.5,443.61,62.38Z"/>
    <path d="M448.79,59.17h2l.17,1.25h.07a4.39,4.39,0,0,1,3.09-1.49c2.06,0,2.95,1.43,2.95,3.82v5.94H454.6V63.06c0-1.46-.4-2-1.34-2a2.72,2.72,0,0,0-2,1.07v6.55h-2.48Z"/>
  </g>
  <g>
    <path d="M381,132.51h7.73v2.09h-5.21v2.91H388v2.11h-4.43V143h5.4v2.11H381Z"/>
    <path d="M391.29,135.57h2l.17,1.26h.07a4.37,4.37,0,0,1,3.09-1.5c2.06,0,2.95,1.43,2.95,3.83v5.94H397.1v-5.63c0-1.47-.4-2-1.34-2a2.72,2.72,0,0,0-2,1.07v6.55h-2.48Z"/>
    <path d="M401.56,146.78a2.32,2.32,0,0,1,1.36-2v-.08a1.82,1.82,0,0,1-.86-1.6,2.36,2.36,0,0,1,1.05-1.79v-.07a3.15,3.15,0,0,1-1.26-2.48c0-2.25,1.82-3.46,3.85-3.46a4.69,4.69,0,0,1,1.43.24h3.43v1.84h-1.63a2.36,2.36,0,0,1,.44,1.45c0,2.14-1.63,3.23-3.67,3.23a4.26,4.26,0,0,1-1.23-.22,1,1,0,0,0-.41.81c0,.51.38.79,1.5.79h1.62c2.29,0,3.54.71,3.54,2.38,0,1.92-2,3.38-5.18,3.38C403.3,149.23,401.56,148.47,401.56,146.78Zm6.77-.51c0-.68-.56-.85-1.58-.85H405.6a5.7,5.7,0,0,1-1.33-.13,1.41,1.41,0,0,0-.63,1.1c0,.8.88,1.26,2.28,1.26S408.33,147,408.33,146.27Zm-1.15-7.48c0-1.12-.63-1.75-1.48-1.75a1.77,1.77,0,0,0,0,3.5C406.53,140.54,407.18,139.91,407.18,138.79Z"/>
    <path d="M412.11,132.68a1.5,1.5,0,0,1,3,0,1.5,1.5,0,0,1-3,0Zm.24,2.89h2.49v9.53h-2.49Z"/>
    <path d="M417.52,135.57h2.05l.17,1.26h.06a4.41,4.41,0,0,1,3.1-1.5c2.06,0,2.94,1.43,2.94,3.83v5.94h-2.5v-5.63c0-1.47-.41-2-1.34-2a2.72,2.72,0,0,0-2,1.07v6.55h-2.49Z"/>
    <path d="M427.84,140.35c0-3.09,2.16-5,4.44-5,2.62,0,4,1.93,4,4.56a4.54,4.54,0,0,1-.12,1.14h-5.87a2.51,2.51,0,0,0,2.64,2.39,3.89,3.89,0,0,0,2.14-.67l.85,1.53a6,6,0,0,1-3.33,1.06A4.62,4.62,0,0,1,427.84,140.35Zm6.28-1c0-1.29-.58-2.11-1.81-2.11a2.15,2.15,0,0,0-2.07,2.11Z"/>
    <path d="M437.72,140.35c0-3.09,2.16-5,4.45-5,2.62,0,4,1.93,4,4.56A5.06,5.06,0,0,1,446,141h-5.87a2.5,2.5,0,0,0,2.63,2.39,3.9,3.9,0,0,0,2.15-.67l.85,1.53a6,6,0,0,1-3.34,1.06A4.62,4.62,0,0,1,437.72,140.35Zm6.28-1c0-1.29-.58-2.11-1.8-2.11a2.16,2.16,0,0,0-2.08,2.11Z"/>
    <path d="M448.21,135.57h2l.17,1.69h.07a3.27,3.27,0,0,1,2.7-1.93,2.61,2.61,0,0,1,1.12.21l-.44,2.16a3,3,0,0,0-1-.15,2.49,2.49,0,0,0-2.19,1.87v5.68h-2.48Z"/>
    <path d="M455.39,132.68a1.5,1.5,0,0,1,3,0,1.5,1.5,0,0,1-3,0Zm.24,2.89h2.48v9.53h-2.48Z"/>
    <path d="M460.8,135.57h2l.17,1.26h.07a4.37,4.37,0,0,1,3.1-1.5c2.05,0,2.94,1.43,2.94,3.83v5.94h-2.5v-5.63c0-1.47-.41-2-1.35-2a2.74,2.74,0,0,0-2,1.07v6.55H460.8Z"/>
    <path d="M471.08,146.78a2.3,2.3,0,0,1,1.36-2v-.08a1.83,1.83,0,0,1-.87-1.6,2.35,2.35,0,0,1,1.06-1.79v-.07a3.15,3.15,0,0,1-1.26-2.48c0-2.25,1.82-3.46,3.84-3.46a4.64,4.64,0,0,1,1.43.24h3.44v1.84h-1.64a2.36,2.36,0,0,1,.45,1.45c0,2.14-1.64,3.23-3.68,3.23a4.26,4.26,0,0,1-1.22-.22.92.92,0,0,0-.41.81c0,.51.37.79,1.5.79h1.61c2.3,0,3.54.71,3.54,2.38,0,1.92-2,3.38-5.17,3.38C472.81,149.23,471.08,148.47,471.08,146.78Zm6.77-.51c0-.68-.56-.85-1.58-.85h-1.16a5.7,5.7,0,0,1-1.33-.13,1.44,1.44,0,0,0-.63,1.1c0,.8.89,1.26,2.28,1.26S477.85,147,477.85,146.27Zm-1.16-7.48c0-1.12-.63-1.75-1.48-1.75a1.77,1.77,0,0,0,0,3.5C476.05,140.54,476.69,139.91,476.69,138.79Z"/>
  </g>
  <g>
    <path d="M552.62,32.9l0-5.7,2.07,0,.06,5.88c0,2.16.77,2.88,2,2.87s2-.75,2-2.91l-.06-5.88,2,0,0,5.7c0,3.45-1.42,4.88-4,4.9S552.66,36.34,552.62,32.9Z"/>
    <path d="M565.51,32.09l-2.78-5,2.3,0,1.06,2.12c.24.49.47,1,.78,1.63h.07c.25-.64.45-1.15.68-1.64l1-2.14,2.18,0-2.68,5.14,3,5.22-2.3,0-1.18-2.28c-.27-.53-.52-1.08-.83-1.7h-.06c-.26.63-.49,1.18-.74,1.71l-1.08,2.31-2.2,0Z"/>
    <path d="M573.11,27,576,27c3.17,0,5.14,1.59,5.18,5.09s-1.92,5.25-5,5.27l-2.95,0Zm2.8,8.67c1.93,0,3.13-1.07,3.1-3.59s-1.24-3.47-3.17-3.46h-.64l.06,7Z"/>
    <path d="M586,26l1.37,0L584,39.82h-1.37Z"/>
    <path d="M589.71,32.55l-.05-5.7,2.07,0,0,5.89c0,2.15.77,2.88,2,2.86s2-.74,2-2.9l0-5.88,2,0,0,5.7c0,3.45-1.43,4.87-4,4.9S589.74,36,589.71,32.55Z"/>
    <path d="M600.88,26.75l2.08,0,.09,10.37-2.07,0Z"/>
    <path d="M610.89,28.79l-5.48.05V27.52l5.48-.05Zm7,2.65a9.4,9.4,0,0,1-2.12,4.1,9.53,9.53,0,0,0,2.9,1.17,7.61,7.61,0,0,0-1.07,1.46,9.77,9.77,0,0,1-3.09-1.5,11.32,11.32,0,0,1-3.2,1.55,7,7,0,0,0-.88-1.43v.71l-2.93,0v.55h-1.42l0-4.78,4.34,0,0,3.49a9.11,9.11,0,0,0,2.82-1.23,9.55,9.55,0,0,1-1.63-2.41l1.42-.47h-1.94l0-1.49h.48a7.6,7.6,0,0,0-1.17-1v.54l-4.31,0,0-1.28,4.32,0v.67a3.15,3.15,0,0,0,1.34-2.88l0-1.67,4.69,0,0,3.14c0,.39,0,.43.19.43H617c.18,0,.24-.19.24-1.41a4.73,4.73,0,0,0,1.36.58c-.12,1.74-.48,2.23-1.42,2.24h-.81c-1.12,0-1.45-.42-1.46-1.81l0-1.69h-1.57v.24a4.41,4.41,0,0,1-1.7,3.92l4.94,0,.27-.08Zm-7.48,1.15-4.32,0V31.38l4.32,0Zm-.08-5.73-4.23,0,0-1.26,4.23,0ZM609,34.6l-1.49,0,0,1.61,1.48,0Zm4.11-2a7,7,0,0,0,1.38,1.87,6.61,6.61,0,0,0,1.3-1.9Z"/>
    <path d="M625.84,28.65l-5.73.05V27.38l5.73-.05Zm-.52,8.72-3.06,0v.55h-1.44l-.05-4.77,4.5,0Zm-4.53-8,4.49,0v1.28l-4.49,0Zm0,1.91,4.49,0v1.25l-4.49,0Zm4.48-4.52-4.44,0V25.5l4.44,0Zm-3,7.76v1.61h1.6l0-1.61Zm11.1-3.2-2.92,0,.06,6.75-1.68,0-.07-6.76-2.92,0,0-1.65,2.93,0,0-4.62,1.68,0,0,4.63,2.93,0Z"/>
    <path d="M638,25.5l1.37,0L636,39.34h-1.38Z"/>
    <path d="M651.61,29.74a10.1,10.1,0,0,0,1.28-.1v1.82c-.35,0-.88,0-1.27,0l-3.38,0a8.91,8.91,0,0,1-.86,3.6,6.72,6.72,0,0,1-2.79,2.72L643,36.61a5.72,5.72,0,0,0,2.52-2,6.16,6.16,0,0,0,.84-3.11l-3.86,0c-.4,0-1,0-1.34.07l0-1.84a10,10,0,0,0,1.35.08ZM644.2,27.9c-.48,0-1.08,0-1.5.06l0-1.81a10.6,10.6,0,0,0,1.5.1l4.58,0a11.14,11.14,0,0,0,1.52-.13v1.81c-.47,0-1,0-1.51,0Zm6.92-.38A20,20,0,0,0,650,25.58l1.12-.47A22.07,22.07,0,0,1,652.23,27Zm1.67-.66a14.71,14.71,0,0,0-1.14-1.92l1.1-.48a18,18,0,0,1,1.14,1.9Z"/>
    <path d="M665.75,28.36a7.77,7.77,0,0,0,1.54-.12l0,1.86c-.31,0-.8,0-1.53,0h-1v.46c0,3.48-.78,5.6-4.15,7.13l-1.51-1.4c2.69-1,3.87-2.19,3.84-5.64V30.1l-3.32,0,0,1.9c0,.63,0,1.19.07,1.47l-2,0a12.37,12.37,0,0,0,.07-1.47l0-1.91-1.19,0c-.7,0-1.2,0-1.51.07l0-1.91a9.46,9.46,0,0,0,1.52.13h1.19l0-1.4a10.39,10.39,0,0,0-.09-1.26l2,0a10.73,10.73,0,0,0-.08,1.27l0,1.39,3.32,0,0-1.48a8.79,8.79,0,0,0-.09-1.29l2,0a9.16,9.16,0,0,0-.09,1.29l0,1.48Zm-.06-.52a19.23,19.23,0,0,0-.73-1.91l.94-.31a13.8,13.8,0,0,1,.76,1.91Zm1.47-.47a13.73,13.73,0,0,0-.77-1.9l.94-.32a17.47,17.47,0,0,1,.79,1.9Z"/>
    <path d="M677.35,35.19A9.22,9.22,0,0,0,677.5,37l-2.22,0a13.45,13.45,0,0,0,.08-1.83l0-4.6a27.41,27.41,0,0,1-4.8,2l-1-1.7a21.49,21.49,0,0,0,6.35-2.59,15,15,0,0,0,3.62-3.2L681,26.42a22.82,22.82,0,0,1-3.68,3Z"/>
    <path d="M688.64,33.15a13.3,13.3,0,0,0,5.05-5.49l1.11,2a14.85,14.85,0,0,1-5.13,5.23,15.08,15.08,0,0,1-5.18,2L683.3,35A14.34,14.34,0,0,0,688.64,33.15Zm0-4.54-1.41,1.49a29.69,29.69,0,0,0-3.53-3l1.3-1.41A29.46,29.46,0,0,1,688.6,28.61Z"/>
    <path d="M699.38,24.93l1.37,0L697.4,38.77H696Z"/>
    <path d="M703.12,25.8l2.07,0,.1,10.37-2.07,0Z"/>
    <path d="M710.52,27.46l-2.92,0V25.76l7.92-.07,0,1.72-2.94,0,.08,8.64-2.07,0Z"/>
    <path d="M725.82,26a5.1,5.1,0,0,0,.8-.06,2,2,0,0,1,0-.27,1.68,1.68,0,1,1,1.7,1.66.62.62,0,0,1-.19,0l-.1.42a14.15,14.15,0,0,1-2.06,5.12,11.06,11.06,0,0,1-5.59,3.92l-1.55-1.65a9.26,9.26,0,0,0,5.47-3.35,8.93,8.93,0,0,0,1.61-4l-6.53.06c-.64,0-1.3,0-1.66.07l0-2a14.9,14.9,0,0,0,1.67.09Zm3.25-.35a.81.81,0,1,0-.79.81A.82.82,0,0,0,729.07,25.66Z"/>
    <path d="M742.12,29.13c-.09.18-.2.43-.26.59a10.18,10.18,0,0,1-2,3.9,10.48,10.48,0,0,1-5,3.07l-1.41-1.57a9.47,9.47,0,0,0,4.83-2.5,6,6,0,0,0,1.42-2.44l-6.76.07c-.34,0-1,0-1.63.08V28.51c.59,0,1.19.08,1.62.07l6.94-.06a3.33,3.33,0,0,0,1-.15Zm-9.58-4a11.33,11.33,0,0,0,1.46.06l5.39-.05a14.7,14.7,0,0,0,1.52-.08v1.8c-.38,0-1,0-1.54,0l-5.36,0c-.45,0-1,0-1.46.06Z"/>
    <path d="M750.17,32.58a13.3,13.3,0,0,0,5.05-5.49l1.11,2a14.85,14.85,0,0,1-5.13,5.23,15.08,15.08,0,0,1-5.18,2l-1.19-1.83A14.34,14.34,0,0,0,750.17,32.58Zm0-4.54-1.42,1.49a29.56,29.56,0,0,0-3.52-3l1.3-1.41A29.46,29.46,0,0,1,750.13,28Z"/>
    <path d="M758.52,33c.54,0,1.2.09,1.75.09l8-.08a13.29,13.29,0,0,0,1.54-.11l0,2.14c-.49-.05-1.12-.07-1.54-.07l-8,.08c-.55,0-1.23.05-1.75.1Zm1.11-6.86a13.09,13.09,0,0,0,1.64.07l5.8-.05c.56,0,1.16,0,1.55-.1l0,2c-.4,0-1.06,0-1.55,0l-5.79.05c-.53,0-1.18,0-1.65.08Z"/>
    <path d="M778.1,32.32a13.19,13.19,0,0,0,5-5.49l1.11,2A15.34,15.34,0,0,1,774,36l-1.2-1.83A14.33,14.33,0,0,0,778.1,32.32Zm0-4.53-1.42,1.48a28.61,28.61,0,0,0-3.52-3l1.3-1.42A28.63,28.63,0,0,1,778.06,27.79Z"/>
    <path d="M796.11,26.19l1.19.72a6,6,0,0,0-.45,1,14,14,0,0,1-2.4,4.71,13.06,13.06,0,0,1-5.61,4l-1.67-1.47a11.2,11.2,0,0,0,5.61-3.52,10.06,10.06,0,0,0,2-3.83l-4,0a15.43,15.43,0,0,1-3.5,3.43l-1.58-1.17A12,12,0,0,0,790,25.56a6,6,0,0,0,.61-1.48l2.07.66c-.33.49-.69,1.12-.86,1.43l0,.07,2.82,0a4.61,4.61,0,0,0,1.21-.18l.1.05a15.3,15.3,0,0,0-1-1.8l1.11-.45a20.67,20.67,0,0,1,1.12,1.91Zm1.55-3a21.11,21.11,0,0,1,1.16,1.9l-1.12.48a13.86,13.86,0,0,0-1.14-1.92Z"/>
  </g>
  <g>
    <path d="M555.19,165.93a10.39,10.39,0,0,0-.05,1.07v4.73c0,.35,0,.9,0,1.22h-2.07c0-.26.07-.81.06-1.23V167a8,8,0,0,0-.06-1.07Zm6.45-.13c0,.4,0,.84,0,1.4V170c0,3-.59,4.3-1.62,5.45a8.15,8.15,0,0,1-3.41,2l-1.47-1.54a6.53,6.53,0,0,0,3.43-1.77c1-1.05,1.14-2.1,1.13-4.28v-2.66a11.09,11.09,0,0,0-.08-1.41Z"/>
    <path d="M567.92,165.93c0,.3,0,.61,0,1.06v4.74c0,.35,0,.89,0,1.21h-2.07c0-.27.06-.82.06-1.24V167a10,10,0,0,0,0-1.06Zm6.46-.13c0,.39,0,.84,0,1.4V170c0,3-.59,4.3-1.62,5.45a8.21,8.21,0,0,1-3.41,2l-1.47-1.54a6.52,6.52,0,0,0,3.43-1.76c1-1.06,1.14-2.11,1.13-4.29V167.2a9.36,9.36,0,0,0-.08-1.4Z"/>
    <path d="M577.77,170.18c.5,0,1.52.08,2.25.08h7.52c.65,0,1.28-.06,1.64-.09v2.2c-.33,0-1-.07-1.64-.07H580c-.8,0-1.73,0-2.25.07Z"/>
    <path d="M601.32,167.15a8,8,0,0,0-.49.87,20.52,20.52,0,0,1-2.2,3.86,38.82,38.82,0,0,1,3.91,4L601,177.27a31.46,31.46,0,0,0-3.54-4,18.29,18.29,0,0,1-5.26,3.93l-1.44-1.51a15.89,15.89,0,0,0,5.74-4,11,11,0,0,0,2.08-3.43h-4.75c-.59,0-1.36.08-1.65.1v-2c.38.05,1.23.1,1.65.1h4.93a5,5,0,0,0,1.46-.18Z"/>
    <path d="M609.2,168.41h-4.62V167.1h4.63Zm8.07,7.57c0,.82-.13,1.29-.6,1.56a4.47,4.47,0,0,1-2.16.31,5.78,5.78,0,0,0-.46-1.63c.57,0,1.22,0,1.43,0s.25-.06.25-.27V166.7h-4.46v3.8c0,2.22-.17,5.42-1.26,7.44a5,5,0,0,0-1.16-.83H606.4v.56h-1.29V172.9h3.73v3.9a16.05,16.05,0,0,0,.91-6.29v-5.21h7.53Zm-8.41-5.66h-3.71V169h3.71Zm-3.71.64h3.71v1.25h-3.72Zm3.67-4.48h-3.59v-1.26h3.59Zm-1.31,7.72H606.4v1.61h1.11Zm5.29-4.28V169h-1.08v-1.21h1.08v-.91h1.3v.91h1.11V169H614.1v.95h1.21v1.22h-3.65v-1.22Zm.13,5.65V176h-1.18v-4.19h3.45v3.72Zm0-2.51v1.32H614v-1.32Z"/>
    <path d="M631.21,167.5a7,7,0,0,1-1.16,2.34,6.42,6.42,0,0,0,2.34,1.09,5.65,5.65,0,0,0-.93,1.29,7.36,7.36,0,0,1-2.41-1.37,8.23,8.23,0,0,1-2.54,1.38,5.68,5.68,0,0,0-.93-1.18l-.53.69c-.34-.27-.95-.7-1.5-1.07v1.45h-1.46v-1.33a9,9,0,0,1-1.86,1.4,6.12,6.12,0,0,0-.93-1,7.9,7.9,0,0,0,2.2-1.36h-1.61v-2.72h2.2v-.47h-2.51v-1.11h2.51v-.71h1.46v.71H626v1.1h-2.48v.47h2.28v.78a6.87,6.87,0,0,0,1.71-3.06l1.48.33a9.69,9.69,0,0,1-.38,1.07h3.49v1.31Zm-4.6,8.79h5.6v1.36H619.48v-1.36h2v-2.1h1.6v2.1H625v-2.56H620.3v-1.32h11v1.32H626.6v.66h3.61v1.22h-3.61Zm-5.43-7.48h.91v-.76h-.91Zm2.37-.76v.76h.91v-.76Zm2.06,3a7,7,0,0,0,2.45-1.19,7.59,7.59,0,0,1-.81-1.22,8,8,0,0,1-.63.66,10.56,10.56,0,0,0-.79-.9v1.42h-1.75c.6.31,1.49.75,1.77.92Zm2.46-3.52a6,6,0,0,0,.9,1.36,4.78,4.78,0,0,0,.66-1.36Z"/>
  </g>
  <g>
    <path d="M260,165.92a10.42,10.42,0,0,0,0,1.06v4.73c0,.35,0,.9,0,1.22H258c0-.27.07-.82.07-1.24V167a10.12,10.12,0,0,0-.06-1.06Zm6.46-.13c0,.39-.06.84-.06,1.4V170c0,3-.58,4.3-1.62,5.45a8.11,8.11,0,0,1-3.4,2l-1.47-1.54a6.56,6.56,0,0,0,3.43-1.76c.95-1.06,1.13-2.1,1.13-4.29v-2.66a9.21,9.21,0,0,0-.09-1.4Z"/>
    <path d="M272.77,165.91a10.54,10.54,0,0,0,0,1.06v4.74c0,.35,0,.89,0,1.22H270.7c0-.27.07-.81.07-1.24V167a10.12,10.12,0,0,0-.06-1.06Zm6.46-.13c0,.39-.06.84-.06,1.4V170c0,3-.58,4.3-1.62,5.45a8.14,8.14,0,0,1-3.4,2l-1.47-1.54a6.64,6.64,0,0,0,3.43-1.77c.95-1,1.13-2.1,1.13-4.29v-2.66a9.21,9.21,0,0,0-.09-1.4Z"/>
    <path d="M282.61,170.16c.51,0,1.53.09,2.26.09h7.52c.64,0,1.27-.06,1.64-.08v2.2c-.34,0-1-.07-1.64-.07h-7.52c-.8,0-1.74,0-2.26.07Z"/>
    <path d="M306.16,167.14a7.11,7.11,0,0,0-.49.87,20.13,20.13,0,0,1-2.19,3.85,41,41,0,0,1,3.91,4l-1.6,1.39a31.34,31.34,0,0,0-3.53-4,18.51,18.51,0,0,1-5.27,3.94l-1.44-1.51a15.94,15.94,0,0,0,5.74-4,10.84,10.84,0,0,0,2.09-3.43h-4.75c-.59,0-1.36.09-1.65.1v-2a14.81,14.81,0,0,0,1.66.1h4.93a4.92,4.92,0,0,0,1.45-.19Z"/>
  </g>
  <g>
    <path d="M222,104.7a3.22,3.22,0,0,0,3,1.39c1.68.07,5,0,6.92-.13a7.14,7.14,0,0,0-.52,1.62c-1.74.09-4.71.12-6.42,0a4.35,4.35,0,0,1-3.62-1.55c-.56.54-1.14,1.08-1.85,1.68l-.79-1.65a17.3,17.3,0,0,0,1.74-1.29v-3.06h-1.57v-1.52H222Zm-1-6.27a10.55,10.55,0,0,0-2.1-2.32l1.28-1a12.46,12.46,0,0,1,2.2,2.23Zm5.18,6.43h-3.63v-1.21h3.63v-.52h-2.84V99h2.84v-.49h-3.11V97.39h3.11v-.73h1.63v.73H231v1.15h-3.2V99h3v4.1h-3v.52h3.81v1.2h-3.81v.92h-1.62Zm-2.05-7.71H222.7V95.23h8.8v1.92H230v-.74h-5.8Zm.61,3.46h1.43v-.54h-1.43Zm1.43,1.51v-.54h-1.42v.55Zm1.63-2.06v.55h1.48v-.55Zm1.48,1.52h-1.48v.54h1.48Z"/>
    <path d="M245.6,105.9c0,.89-.2,1.34-.76,1.59a6.55,6.55,0,0,1-2.69.3,6.14,6.14,0,0,0-.53-1.6c.79,0,1.71,0,2,0s.37-.09.37-.34v-2.1H241v3.91h-1.68v-3.9h-2.86a8,8,0,0,1-1.76,4.16,6.29,6.29,0,0,0-1.32-1.08c1.53-1.68,1.65-4.18,1.65-6.14v-5h10.57Zm-6.29-3.68v-1.73h-2.64v.26c0,.44,0,1,0,1.47Zm-2.64-4.91v1.63h2.64V97.31Zm7.27,0H241v1.63h2.95Zm0,4.9v-1.72H241v1.72Z"/>
    <path d="M251.37,95.37h1.37l-3.46,13.83H247.9Z"/>
    <path d="M265.24,98.27a9.27,9.27,0,0,0,1.54-.1V100c-.31,0-.8,0-1.54,0h-1v.46c0,3.47-.84,5.59-4.21,7.08l-1.5-1.42c2.7-.94,3.89-2.16,3.89-5.59V100h-3.32v1.91c0,.61,0,1.19.06,1.47h-2a11.88,11.88,0,0,0,.08-1.47V100h-1.19c-.7,0-1.21,0-1.51.06V98.14a8.5,8.5,0,0,0,1.52.13h1.19V96.88a10.73,10.73,0,0,0-.09-1.26h2a9.2,9.2,0,0,0-.08,1.28v1.37h3.32V96.8a9.49,9.49,0,0,0-.09-1.31h2a11.87,11.87,0,0,0-.08,1.3v1.48Z"/>
    <path d="M272.81,101.61a22.33,22.33,0,0,1-2.7,3.91l-1.52-1a14.42,14.42,0,0,0,2.63-3.61Zm3.16-2v6.51c0,.82-.47,1.32-1.46,1.32a21.07,21.07,0,0,1-2.28-.12l-.17-1.74a9.74,9.74,0,0,0,1.55.16c.37,0,.51-.13.52-.5s0-5,0-5.62h-3.56c-.42,0-1,0-1.35.06V97.81a10.26,10.26,0,0,0,1.36.12h3.56V96.8a6.69,6.69,0,0,0-.13-1.21h2.08A10.89,10.89,0,0,0,276,96.8v1.12h3.27a10.27,10.27,0,0,0,1.37-.1v1.84c-.44,0-1,0-1.36,0Zm2.86,1.2a32.28,32.28,0,0,1,2.4,3.68l-1.65.9a26.56,26.56,0,0,0-2.28-3.75Zm-.8-4.69a1.62,1.62,0,1,1,1.63,1.62A1.61,1.61,0,0,1,278,96.13Zm.85,0a.77.77,0,0,0,.77.77.77.77,0,1,0-.77-.77Z"/>
    <path d="M283.35,100.15c.5,0,1.52.08,2.25.08h7.52c.65,0,1.28-.06,1.64-.09v2.2c-.33,0-1.05-.07-1.63-.07H285.6c-.8,0-1.73,0-2.25.08Z"/>
    <path d="M306.38,103.4a40.11,40.11,0,0,0-5.05-2.09v4c0,.4.07,1.39.13,1.94h-2.19a15.84,15.84,0,0,0,.14-2v-8a9.6,9.6,0,0,0-.15-1.7h2.19a14.35,14.35,0,0,0-.13,1.7V99.3a45.31,45.31,0,0,1,5.85,2.16Z"/>
  </g>
  <g>
    <path d="M250.17,25.49a14.76,14.76,0,0,0,6.05,5.08,9.15,9.15,0,0,0-1.12,1.5,18.68,18.68,0,0,1-5.72-4.94,17.27,17.27,0,0,1-5.6,5,7,7,0,0,0-1.05-1.34,15.5,15.5,0,0,0,5.73-5.26Zm.24,11.25h5v1.51H243.51V36.75H245V31.88h1.64v4.86h2V29.47h1.75v3h3.75v1.47h-3.75Z"/>
    <path d="M270.43,26.38v1.55h-5.49v1.12h2.55V35.4h-6.67V29.06h2.45V27.94h-5.38V26.38Zm-2,2.48H270v9.75H268.4V37.8h-8.46v.83h-1.62V28.87h1.63v7.37h8.46Zm-6.22,2.73h1.22V30.42h-1.22Zm0,2.45h1.22V32.85h-1.22Zm3.87-3.63h-1.22v1.17h1.22Zm0,2.44h-1.22V34h1.22Z"/>
    <path d="M275.36,30.28a1.8,1.8,0,1,1-1.8,1.8A1.81,1.81,0,0,1,275.36,30.28Z"/>
    <path d="M280.87,28.63a9.42,9.42,0,0,0-.86-2.35l1.36-.44a9,9,0,0,1,.94,2.3Zm3.71,7.67v2.3H283V36.3h-3V34.83h3V34h-2.5V28.8h5.63l-1.27-.41A13.21,13.21,0,0,0,286,25.57l1.73.46a29.16,29.16,0,0,1-1.57,2.76h.91V34h-2.52v.82h2.9V36.3Zm-2.73-5.47h1.25V30h-1.24Zm0,1.94h1.25V32h-1.25Zm1.26-4.51a11.37,11.37,0,0,0-.59-2.41l1.37-.31a11.57,11.57,0,0,1,.69,2.33ZM285.67,30h-1.19v.82h1.19Zm0,2h-1.19v.8h1.19Zm7.13-.41a14,14,0,0,1-1.91,3.77c.22.77.49,1.22.78,1.25s.38-.65.46-1.85a5.16,5.16,0,0,0,1.19,1c-.36,2.36-1.06,2.9-1.65,2.87-.84,0-1.48-.67-2-1.8a10.11,10.11,0,0,1-2.41,1.86,5.76,5.76,0,0,0-1.2-1.16,9.17,9.17,0,0,0,3.09-2.37A27.94,27.94,0,0,1,288.6,31l-1.2.16-.17-1.54,1.24-.16c-.07-1.2-.11-2.49-.15-3.87h1.58c0,1.29.06,2.53.13,3.69l3-.37.17,1.53-3,.38c.09.91.18,1.76.31,2.51a12.3,12.3,0,0,0,1.09-2.47Zm-1.16-2.77a11.19,11.19,0,0,0-1.32-2.44l1.26-.65a10,10,0,0,1,1.4,2.36Z"/>
    <path d="M307.32,27.37A11.13,11.13,0,0,1,305.08,31a10,10,0,0,0,3,1.58,7.26,7.26,0,0,0-1.06,1.4l-.1,0v4.63h-1.62v-.43h-2.88v.44h-1.54V34l-.35.15a5.65,5.65,0,0,0-.48-.73v2.44h-3.64V37h-1.2V26.35h4.85V29a9.36,9.36,0,0,0,2.4-3.51l1.56.44a10.55,10.55,0,0,1-.44,1H306l.28-.07Zm-10.87.41v2.48h.66V27.78Zm0,6.65h.66v-2.8h-.66Zm2.39-6.65h-.7v2.48h.7Zm0,6.65v-2.8h-.7v2.8Zm1.24-1.76a11.23,11.23,0,0,0,2.75-1.7,11.68,11.68,0,0,1-1-1.39,8.5,8.5,0,0,1-1,1,6.8,6.8,0,0,0-.67-.7Zm5.78.75A10.61,10.61,0,0,1,304,32.08,14.7,14.7,0,0,1,302,33.42Zm-.54,3.26v-1.8h-2.87v1.81Zm-2.54-8.39-.08.12A9.21,9.21,0,0,0,303.92,30a9.84,9.84,0,0,0,1.23-1.67Z"/>
  </g>
  <g>
    <path d="M559.8,104.45a7.11,7.11,0,0,0,4.77,2,6.29,6.29,0,0,0-1,1.46c-2.67-.42-4.33-1.41-5.44-3.15-.83,1.25-2.38,2.35-5.24,3.13a6.27,6.27,0,0,0-1-1.35,8.44,8.44,0,0,0,4.47-2.09h-4.22V103h5a5.54,5.54,0,0,0,.14-.88h-3.58v-1.35h3.6v-.84h-3.83V99h-1.25V96h5.12V94.81h1.7V96h5.13v3h-1.12v.93H559v.84h3.81v1.34H559a4.51,4.51,0,0,1-.11.88h5.53v1.45Zm-2.48-5.85v-.8H559v.8h3.49v-1.1H553.9V98.6Z"/>
    <path d="M578.73,104.2a17.86,17.86,0,0,1-2.29,1.29,8.66,8.66,0,0,0,3.09,1.07,6.07,6.07,0,0,0-.93,1.36,7.49,7.49,0,0,1-5.77-4.46,9.47,9.47,0,0,1-1.65,1.1V106l2.73-.37L574,107c-2,.31-4.17.59-5.72.81l-.26-1.41,1.57-.18v-.94a14.26,14.26,0,0,1-2.37.64,5.37,5.37,0,0,0-.88-1.2,14.86,14.86,0,0,0,4.26-1.25h-4v-1.26h5.46v-1h1.66v1h5.55v1.27h-1.55Zm-9.32-4.38c-.84.4-1.74.77-2.52,1.13l-.52-1.36c.71-.26,1.71-.66,2.75-1.1l.29,1.15V94.79h1.52v6.74h-1.53Zm-1.07-1.94a10.18,10.18,0,0,0-1.71-1.52l1-.93a12.71,12.71,0,0,1,1.78,1.41Zm6.12,0h-3V96.4h3V94.79h1.67V96.4h3.11v1.44h-3.11V99.5h2.76v1.42h-7V99.5h2.62Zm-.05,5.6a5.36,5.36,0,0,0,1,1.24,18.31,18.31,0,0,0,2-1.24Z"/>
    <path d="M584.29,95.37h1.37L582.2,109.2h-1.38Z"/>
    <path d="M597.26,104.12a4.88,4.88,0,0,0,3.21,2.41,3.92,3.92,0,0,0-1,1.39,5.94,5.94,0,0,1-3.35-2.76,6,6,0,0,1-3.77,2.78,6.34,6.34,0,0,0-.88-1.24c2.14-.67,3.08-1.58,3.47-2.58h-2.56v-3.86h2.83v-.9h-1.75v-.71a9.12,9.12,0,0,1-1.15.68,6.87,6.87,0,0,0-.41-.81v.67h-1.27v.67c.37.49,1.36,2,1.57,2.34l-.84,1.29c-.16-.41-.44-1-.73-1.6v5.95h-1.54V102.7a11.25,11.25,0,0,1-1.28,2.69,8.32,8.32,0,0,0-.75-1.49A14,14,0,0,0,589,99.2h-1.61V97.66h1.7V94.78h1.54v2.87H592v.1a8.68,8.68,0,0,0,3.25-3h1.51a8.91,8.91,0,0,0,3.85,3.07,9.6,9.6,0,0,0-.85,1.46c-.36-.19-.74-.41-1.11-.65v.69h-1.85v.9h3v3.87Zm-2-1.27a3.85,3.85,0,0,0,0-.48v-.84h-1.39v1.32ZM597.69,98A9.6,9.6,0,0,1,596,96.22,8.83,8.83,0,0,1,594.37,98Zm-.93,3.54v.88a3.24,3.24,0,0,1,0,.44h1.5v-1.32Z"/>
    <path d="M601.91,97.14h5.2v1.32h-5.2Zm4.8,10.16h-2.77v.55h-1.4v-4.78h4.18Zm-.1-6.91h-4V99.15h4Zm-4,.7h4v1.26h-4Zm4-4.62h-4V95.21h4Zm-2.67,7.92V106h1.34v-1.6ZM615,105.81v1.55h-7.87v-1.56H608V99.17h1.55v6.64h1.06V97.07h-3.09V95.49h7.22v1.59h-2.49v3.3h2.42v1.57h-2.42v3.87Z"/>
  </g>
  <line x1="509.34" y1="32.58" x2="546.81" y2="32.58" style="fill: none;stroke: #000;stroke-miterlimit: 10"/>
  <line x1="509.41" y1="171.37" x2="547.32" y2="171.37" style="fill: none;stroke: #000;stroke-miterlimit: 10"/>
  <line x1="538.14" y1="101.47" x2="546.81" y2="101.47" style="fill: none;stroke: #000;stroke-miterlimit: 10"/>
  <line x1="313.12" y1="32.6" x2="350.58" y2="32.6" style="fill: none;stroke: #000;stroke-miterlimit: 10"/>
  <line x1="313.12" y1="171.39" x2="350.58" y2="171.39" style="fill: none;stroke: #000;stroke-miterlimit: 10"/>
  <line x1="313.12" y1="101.49" x2="321.78" y2="101.49" style="fill: none;stroke: #000;stroke-miterlimit: 10"/>
</svg>
